<?xml version="1.0" encoding="utf-8"?>
<!-- Generator: Adobe Illustrator 25.2.1, SVG Export Plug-In . SVG Version: 6.00 Build 0)  -->
<svg version="1.1" id="Calque_1" xmlns="http://www.w3.org/2000/svg" xmlns:xlink="http://www.w3.org/1999/xlink" x="0px" y="0px"
	 viewBox="0 0 2000 2000" style="enable-background:new 0 0 2000 2000;" xml:space="preserve">
<style type="text/css">
	.st0{fill:#777777;}
	.st1{fill:none;stroke:#ED6C6F;stroke-miterlimit:10;}
	.st2{fill:#FFFFFF;}
	.st3{font-family:'ArialMT';}
	.st4{font-size:22.8022px;}
	.st5{fill:#ED6C6F;}
</style>
<rect class="st0" width="2000" height="2000"/>
<g>
	<g>
		<g>
			<path class="st1" d="M1520.6,846.2l-3.4-5.1l-2.8,0.9c-1.4-0.9-3.1-1.1-5.1-1.4c-0.6-1.1-0.6-2,0-2.8c-0.3-1.4-1.4-2.3-2.8-3.1
				V828l-2.6-0.6l-1.7-3.1c1.7-4.3,1.7-7.4,0-9.7c0-1.4,0.3-2.3,1.1-3.1v-7.4h3.7c1.7-0.3,3.1-1.4,3.7-3.4l3.4-2l4.3,1.7l1.4-5.7
				l2.3-1.7c0.9-1.4,1.7-2,2.3-2.3c0.9-2.6,1.4-5.1,1.4-8.2c0-1.7,0.3-2.6,0.6-2.8h7.1c0.9,1.1,2,1.4,2.8,1.4l1.1-11.1l1.4-2.8
				l5.4-4.3v-6.5l2.6-2.3c2-0.6,3.1-2,3.7-4.3l-4.8-4l-3.1,1.1l-2.6,2.3c-2.3,0.9-4,0.6-6-1.1c0-1.4,0.3-3.7,0.9-6.5l2.6-2
				c0.6-0.3,1.4-1.4,2.6-3.7c1.4-2,3.4-3.4,6.3-4.5c0-0.3,0-1.7,0.6-3.7l2.3-2.6l2.8-1.7l0.9-2.6V712l1.4-2.6l3.1-4.5
				c-1.4-1.4-3.1-2.6-4.8-3.1l-3.4-1.4c0-1.4,0.3-3.4,1.1-6l1.7-2.3c0-0.9,0.6-2,1.4-2.6V687l1.7-3.1l-0.3-6h3.4
				c1.4,1.7,3.1,2,5.7,1.1h2.3l0.6-2.8l-2.6-1.7l-0.9-3.1c0.3-0.6,1.1-0.9,2.6-0.9l1.7-2.3V666l-3.7-3.4v-6h7.1
				c1.1,1.1,3.1,1.7,5.1,1.7l2.6-2.3v-1.7l1.1-2.8l-2.3-2.8l-2.8,0.9h-4.8l-1.4-2.6v-4.3l4-6.8l2.3-3.1h7.1c0.6-0.9,1.4-1.1,2.8-1.4
				v-4.8c1.7-0.3,2.8-1.1,3.4-2.8l-3.4-2.3c-0.9-0.9-2.3-1.7-3.7-2.6c0-1.1-0.6-2-1.1-2.8l-2.3-2v-1.7l-2.8-4.8
				c-0.3,1.1-1.4,2.3-2.3,3.1c0,2-1.1,3.4-2.8,4c-0.9-0.6-2-0.6-3.7,0c-0.3,1.1-0.9,2-1.7,2.6l-2.6-0.3c-1.1,0.3-1.4,1.1-1.7,2.6
				l-1.7,2.6c-1.7,0.3-2.6-0.3-2.3-1.7V614c-2.6-0.6-3.7-2.3-2.8-4.8c2,0,3.1-1.1,3.7-3.1c-1.4-0.6-2-1.4-1.1-2.8l-0.6-3.1
				c-6-0.3-10.8-2-14.8-5.1l-1.1,3.7l-6.3-0.9h-2.8c-0.3,1.7-1.1,2.8-2.3,3.7l-3.1,0.3l-2.6-0.9l-1.4-2.6c-3.4,1.7-5.7,1.7-7.1,0
				c-2.3-0.9-4.8-0.3-7.4,1.4c-0.6,0-1.4-0.6-2.8-1.4c-0.9-1.7-0.9-3.4,0-5.1c1.4,0,2.3-0.6,2.8-1.4l-2-2.3l-34.7-12.8
				c-1.1-0.9-2.6-1.4-4-2l-2.8-7.7c-0.6-2.8-0.3-5.7,0.9-8.2v-9.9c0.6,0,0.6-0.9,0.9-3.1l-2.6-1.7l-14.8-12.8l0.3-3.7l-2.8-0.6
				l-1.4-2.6h-10.5c-0.3,0-1.1,0.6-2.6,1.7c-0.6,0.3-0.9,1.1-1.1,2.6l-1.4,4c-2.3,2-5.4,3.1-9.4,3.7l-2.8-0.3
				c-0.3,1.7-1.1,3.4-2.6,4.5l-3.1,0.3l-4,8.8h-6l-19.9-8l-4.5-0.9v6l-2.8,4.3h-17.6l-13.4-2.6h-5.7c-0.9,1.1-2.3,1.7-4.3,2"/>
			<path class="st1" d="M1280.2,916.4c1.1-0.3,2,0,2.6,0.9c0.9,0.6,1.4,0.6,2,0.6l1.1-0.9h2.6c0,0.9,0.3,1.1,0.6,1.4
				c0.6,0.9,1.1,1.1,2,1.1c0.6,0.3,0.6,0.6,0.6,1.1c0.6,1.4,1.4,2,2.3,2l1.7,0.9c0.9,0.6,1.4,1.1,1.7,2c1.7-1.1,3.1-2,4.5-2.3
				l1.1,0.9l1.1,1.1l8.5-6l-2.3-2.6v-4h-4.8c-0.3-0.6,0-1.1,0.9-1.7c0.9-1.1,1.1-2,0.6-2.6c0.9-1.1,1.7-1.7,2.8-1.7l1.4,1.1
				c0.9,0.6,1.4,0.9,2,1.1l1.7,0.3v0.9l1.1,1.1l1.7-0.6c1.4-2.3,3.4-3.1,5.7-2.8l0.9,1.4l1.7-1.1h4c0,0.9,0.3,1.4,0.9,2l1.7-0.6
				l0.9-1.1c0.3-1.4,0.9-2.3,1.7-2.8l1.1,0.6v4l1.4,0.9l1.4-0.6h7.1V909l2.8-1.7v-2.6l1.4-1.1c0.6-0.6,1.1-0.9,2.3-1.1l2.6,2v1.4
				h4.3l2.8,3.1v2h1.4l0.9-0.9v-5.7l0.9-1.4l1.1-0.9l1.4,0.3h1.7l0.9-0.9l0.9-1.1h1.4c2-0.9,3.7-2.3,4.8-4l3.4-4.8
				c0-0.3,0.3-0.6,1.1-0.9c2.6-1.4,5.4-2,8.8-1.1c0.3,1.1,0.9,2.3,1.7,3.4h1.7c1.7-2.8,3.4-4.3,5.1-4.8c-0.3,0.9,0,1.7,0.9,2.6v7.1
				c1.1-0.3,2.6,0.3,3.7,1.4c-0.6,1.7-0.3,3.1,0.3,4.5h2c0.9,0,1.7,0,2.6,0.6v1.4l0.3,1.7c0.6,0.3,1.1,0.6,1.4,0.9l4.5-4l1.1,0.3
				c-0.6,1.4-0.9,3.1-0.9,4.5c1.4-1.1,2.6-2.3,3.1-3.7c1.4-1.1,2.8-1.4,4.3-0.9l2.3,2.6l1.4-1.4v-3.4l3.4-2.6c0-0.6-0.3-1.1-0.9-1.4
				c-0.6,0-1.1-0.3-1.4-0.6v-2.6l0.9-0.9c1.4-0.3,2.3,0,3.4,0.6l0.3,2.6l3.4,0.3v2.3c-0.3,0.6-0.6,1.4-0.9,2.8h-1.1l2.3,2.3l2.3-2.6
				l3.7-0.9c0.6-0.9,1.1-1.7,1.7-2.3c-0.3-0.6,0.9-1.4,3.4-2.6l2.3-2.3c0.9-0.9,2-1.4,3.1-2l1.1,0.6c1.1,0.3,1.4,0,1.7-0.3v-1.7
				l-2-2.6V882l0.9-1.1h1.7l1.7,1.4l2.3-1.4h4.5l1.4-1.1c0.3-1.1,0.3-2,0-3.1l3.4,1.4l5.4-0.9v-4.3l2-1.1h2l4.3,1.1
				c1.4-2,3.4-3.1,6.5-2.6c0.3-1.7,0.3-3.4,0.3-5.1c0-0.3,0.6-0.9,1.4-1.4l2.8,0.6l2,0.9c1.1,0,1.7-0.3,2-0.9l0.3-2.8h3.1l1.1-1.4
				l4-3.7l0.6-1.1c0-1.1,0-2-0.6-3.1l1.4-4.3h7.1l1.4,0.3l1.1,1.1c1.4-0.3,2.6-1.4,3.1-3.1"/>
			<path class="st1" d="M1520.6,882.5V876l7.4-7.1v-5.7l-4.3-8.5c2-1.4,3.4-2.8,4.3-4.8c-0.9-2.3-1.4-3.7-1.7-3.7h-5.7"/>
			<path class="st1" d="M1609.3,881.4v-9.7l-4-0.3l-2.3,2h-6.8c-1.7,1.4-3.4,3.4-4.5,6.3c-0.6-0.9-1.4-2.8-2.3-6l-2.6,0.6l-1.7,2.6
				l-4,2.3c-2-0.3-3.1,0.3-4,1.7l-3.1,0.6c-2.3-1.7-4-4-5.1-6.8l-1.4-2.6c-1.4,0.6-2.6,1.4-3.7,2.6l-4.8-11.4h-3.4l-2.8,2.3v2
				l-4.5,3.4l-3.4,6.8c0.3,1.4,0,2.6,0,3.4"/>
			<path class="st1" d="M1672.4,1254.3l1.7,14.2c0.6,1.4,1.7,2.3,2.8,2.6l2.3,2c1.1,0,2.6,0.6,3.4,1.1l5.7,2.6l3.4-2.8h4.8
				l-0.3-10.5c0.9,0.3,2,1.1,3.4,2.3l2.3,1.4h5.4l1.4-2.6l4.3,3.7l-2.6,5.4l4.8,3.4c-0.3,1.1-1.4,2.3-3.7,3.4l-1.4,3.4l1.7,2.6
				l2.6-0.9v3.7l2.3,0.9h4.3v-3.7c3.7-0.3,6.5-1.4,7.7-3.1c0.6-1.1,0.6-2.3,0.3-2.8v-3.7c-2.8,0-5.1,0.9-6.5,2.3
				c-0.9-0.6-1.4-1.4-1.1-2.6l0.9-2.8c1.4-0.9,2.6-2.3,3.4-4l-6.8-5.4c0.6-1.1,1.4-2,2.8-2.6c1.4,0.3,2.3,1.1,2.8,2.6
				c0.9-2,1.7-4.3,1.4-7.1l4.5,3.4l2.3-2h5.4c1.7,0,2.8-0.3,3.7-0.9c0.3-3.7-0.6-6-2-7.4c-0.6-1.4-0.3-3.1,1.1-5.1l-0.3-3.1l2-2.3
				l-5.1-3.1v-2.8c-2.8-0.6-4.5-1.1-5.1-2c-1.4-0.9-2-2-2.3-3.7c2-0.9,3.4-1.1,3.7-0.9l3.7-0.6l0.6-2.8l-3.1-3.7l2-2h7.4l2.8,0.6
				c-0.6-4.8,0-8.2,1.7-10.5h3.4l5.1-4.5h4.3c1.4-0.6,2.3-1.1,2.8-1.1l5.1-3.7l2.6,1.7l6.5-1.7c1.1-0.9,2-1.4,1.7-2l0.3-3.4l3.1-2.3
				v-4.3l-1.7-6.3c0.6-1.1,1.4-1.7,2.3-2.3c-0.3-3.7,0.3-6.5,2-8l3.1,0.3c1.1-1.4,1.1-2.8,0.6-4.3c0.6-1.7,1.7-3.1,3.4-3.4
				c1.1,0.3,2,0.6,2.6,1.7c0.9-1.4,2.3-2.6,4-2.8c1.7,0.6,2.6,1.7,2.3,3.7c1.4,1.1,3.1,1.7,4.8,1.1l2.6,1.1c0.3,2.6,1.4,4.5,3.4,6
				h2.8c0.3-3.1-0.3-5.7-1.4-7.7l2.3,0.6c2.3-0.9,3.4-2,4-3.7c4.8,0.3,8.8-1.1,11.4-4.5v-6.5c-1.4-1.1-2.8-2-4.5-2.6l0.9-3.7
				l-1.4-2.6c-2-0.9-3.4-2-4.3-3.1h-3.7c-1.1-0.6-2.3-1.4-2.8-2.6v-5.7l-13.1-8.2c-0.3-1.1,0-2.6,0.9-4c2-0.6,3.7-1.7,5.4-2.8v-5.4
				c2.3-1.1,4-3.1,5.4-5.1v-9.9c-0.9-1.4-0.9-2.6,0-4l2.6-2.8l1.1-4.3l-0.9-3.7v-6.3c-0.6-0.6-1.7-1.1-3.1-1.7l-5.1,1.1l-2.8-0.9
				c-1.1-0.3-2.3-0.9-3.7-2v-4.3l-0.3-3.1c-0.3-1.1-1.1-2-2.6-2.3c0.3-1.1,0.6-2,1.1-2.8v-3.1l3.4-2l1.1-2.8h-5.1
				c-1.4,0-2.8-0.6-3.7-1.7h-6c-0.6-2.3-1.4-3.7-2.6-4.8c-1.7,0.3-3.1,0.6-4.3,1.1h-4.8c-1.4-0.6-2.3-1.4-3.1-2.8l-4-0.6
				c-1.7,2-4,3.4-6.3,4.3c-1.1-0.6-1.4-1.4-1.4-2.8c-0.9-1.1-2-1.1-2.8-0.6l-1.7,2.8l-3.4,0.9l-2.8,2.3l-2.8-0.3
				c-0.3-2,0-3.4,1.1-3.7l-4.8-6c-1.1-1.1-2-2.6-2.6-4.5c-1.7-2.3-3.7-3.1-6.5-2.8c-0.9-0.9-1.7-2.3-2.3-3.7l5.1-4.8
				c-0.6-0.9-1.4-1.7-2.8-2l-2.6-2.8l-2.8,0.3v-7.7c-1.4-0.3-2.3-1.1-3.1-2.3l1.4-2.6h2.6l0.3-3.4c1.1-1.1,2.6-1.7,4-1.7
				c3.1-0.9,4.8-2.6,5.7-4.5l5.7-2.3v-9.1c3.1,1.4,6,2.6,8.8,2.6l2-1.7v-9.7c0.9-1.1,2.3-2,4-2.8c1.1-1.1,2.3-1.7,2.6-1.7
				c1.7-2,2.8-4.3,3.1-7.1l-1.7-2.6c-1.1-0.3-1.7-0.9-2.3-1.7c-1.1,0.9-2.3,1.7-4,2.3h-5.4c-4,0-7.4-1.1-10.2-3.7
				c-1.1-0.3-2.3,0-2.6,0.9c-3.7-0.3-5.4-0.9-5.4-1.4c-1.1-0.9-2-0.9-2.6,0.6v2.6l-4.3,3.1c-0.3-1.7,0-3.4,1.4-5.1l-2.6-3.7
				c-1.4,0-2.6-0.6-2.8-1.4l-2.3-2.6c1.4-0.9,3.1-1.4,6-1.4l1.7-2.6l-0.9-2.8l-4-1.4l-2.6-2.6l-1.1-2.3c-0.9-2-1.1-3.7-0.9-5.4
				c-1.4-2.6-3.1-4-5.7-4.8l-3.1-2.8v-5.1l-4.3-4.5v-2.6l-2.3-1.7l-1.4-2.6l1.7-2l-2.6-2.8c-0.9-1.1-1.4-2.6-1.7-3.7h-9.1
				c-8.5,1.7-15.9,0.3-22.2-4c-0.3,0.6,0,1.7,1.1,2.8v5.1c-2.6,0.9-4,0.9-4.8,0c0.3-1.7,0.6-3.4,1.7-4.8l-2.6-1.4
				c-0.6-0.9-0.6-2-0.6-3.4l4.8-5.7v-2.6c-1.1-0.6-1.7-1.1-2.6-2.3c-3.4-0.9-6.5-2.3-9.1-4.3l-3.1-0.3l-6.5,1.7
				c-1.1-0.6-2-1.1-3.1-0.9l-4,0.3v-4.3c-0.3-0.9-1.4-1.4-2.8-1.4l-3.1-1.1c-1.1,0.6-2.3,1.1-2.6,2.3l-11.7,3.4
				c-0.9,2-2.3,3.4-4,3.4"/>
			<path class="st1" d="M1619.8,883.7l-2.6-2.8l-3.1-0.9l-1.1,3.4c-1.4-0.6-2.8-1.4-3.7-2"/>
			<path class="st1" d="M1609.3,881.4c-0.6,0.9-0.6,2.3-0.6,3.7l1.1,3.1h5.4v2.6l2,2.8c-0.9,2.8-3.1,5.1-6.5,7.1l-0.9,0.9v4.5h-2.6
				v1.4c-0.6,1.4-0.9,2.3-0.6,3.4l-1.7-0.3l-7.7-5.1l-2,0.6h-6.5l-0.9,1.1c-0.6,0-0.6,0.6-0.6,1.1h-12.2v-5.7
				c-1.4-2.3-3.4-4-5.1-5.7l1.4-0.9v-2.8c-1.7,0-3.4-0.6-5.4-2l-0.9-1.4l-0.6-1.7l-6-2.8l-1.4-1.1l-2.6,2c-2.8,2.6-5.4,3.1-7.7,1.4
				c0.3-2,0-3.7-0.9-5.1l-1.4-1.4"/>
			<path class="st1" d="M1544.8,881.1c-1.4,1.4-2.8,2.6-4.3,2.6l-2.8,4.8h-3.7c-0.6-1.1-1.7-1.7-3.4-2l-1.7-0.9h-6.3
				c-1.1-0.6-2-1.7-2-3.1"/>
			<path class="st1" d="M1544.8,881.1l-7.7-5.7c-0.9,0.6-1.1,1.4-1.4,2.6h-5.7l-1.4,2.8l-2.6,1.7h-5.4"/>
			<path class="st1" d="M1672.4,1254.3l-1.1-2c-0.6,0-1.1-0.6-1.1-1.4l1.1-1.1l1.4-3.4h1.4h1.4c0-2.3,0.9-4,1.4-5.1
				c-1.4-0.6-2.8-1.4-4.3-2.6l-3.7,4.8h-2.6l-0.3-1.7c0.3-0.9,0.6-1.4,1.4-2.3l0.9-2.3l-0.3-1.7c-0.6-0.6-0.9-1.1-0.3-1.7v-4.8
				l-2.8-3.4l1.1-3.7c-1.1-0.3-2-0.6-2-1.4c0.3-0.6,0.6-1.4,0.3-2.3l2.6-2.8l2.3-4.5c-0.9-1.4-1.4-2.6-2.6-3.4v-1.7l1.1-1.7
				c-0.9-0.9-1.4-2.3-1.4-4.3l1.4-16.8v-1.1l0.6-1.4l-2.8-2.3v-6l-1.4-1.1l-1.1-1.4h-0.9l-1.1-0.6h-7.1l-0.6-1.4l-0.6-2.8
				c-0.6-0.6-0.9-1.1-0.9-2l1.7-1.7h-6l-0.9,1.1l-2.8,0.6c-1.7-1.7-3.1-3.7-4-6.5h-8.2l-0.6,1.4c0,0.9-0.6,1.1-1.1,0.6h-7.7
				l-3.1-3.4h-4.5c-0.6,0.6-1.7,0.9-3.1,0.9l-1.4-0.3c-1.4-0.6-3.1-1.7-4.5-3.4l-2.6-2h-1.7v2.6l-1.1,1.4l-3.1,2.3v8.8l3.1-1.7
				l1.4,1.4l0.9,3.1h2.6c0,1.4-0.3,2.3-0.9,2.6l0.3,4.5c-0.3,0.6-0.3,0.9,0,0.9c-0.3,0.9-0.6,1.7-0.3,2.6c-1.7,0-3.1,0.6-4,2
				c-0.6,0-0.9,0.3-1.4,0.6l2.8,3.1c-0.3,0.6-0.6,1.1-0.9,2h-2.3c-0.9,0.3-1.4,1.1-1.4,1.7c-0.9,0.6-1.4,1.4-1.7,2.3
				c-0.3,1.4,0,2.8,0.6,4.5c1.4,0,2.8-0.3,4.3-1.4l8.8-0.6l1.1,0.9v2.6l-0.9,0.9c0-0.3-0.3-0.6-0.9-0.6c-0.3,0.9-0.9,1.1-1.4,1.4
				l-1.1,4c-2,0-3.7,0.6-5.7,2l-2.6,1.4c-1.7-0.3-2.8,0.6-3.7,2.3h-4l-1.7-3.7l-1.1,0.3c-1.1,1.4-2,2-3.1,2.3l-1.1-1.1
				c-0.3-0.3-1.1,0.3-2,0.9v1.1l-0.9,6.3l-2-1.7c-0.3-1.7-0.9-2.8-2-3.4c0.6-0.6,0.9-1.4,0.6-2.3h-7.4l-0.9,1.4l-3.1-0.9
				c-0.6-1.7-0.9-2.8-2-3.1h-4c-0.9,0.9-2.3,1.4-4.3,1.7c-0.3,0.9-0.3,2-0.6,2.8c-0.3,0.6-0.3,1.1,0.3,2l-7.4-0.3
				c0-0.9-0.6-0.9-1.1-0.6l-3.7-1.4l-1.4-1.7c-0.9-1.4-0.6-2.6,0.9-3.4h1.4c0.9-0.9,1.4-1.7,2.8-2.8h1.4c-0.6-0.3-0.3-0.6,0.3-0.9
				l2.3-6.5l-2-1.7c1.1-2.3,3.1-4.3,6.3-5.7l-1.7-3.1l-1.7-1.4h-5.7c-0.3,0.3,0,0.9,0.6,1.4h-2.6c0-1.1-0.6-1.4-1.7-1.1
				c0.3-0.9,0-1.1-1.1-1.1l-0.6-3.1l-2.3-0.6c0.6-0.6,0.6-0.9,0-0.9c0-0.9,0-1.4-0.9-1.7c0.3-0.6,0.3-0.9-0.6-1.1
				c0.3-3.1,0-5.4-0.9-6.5l-1.4-2.3h4.3l2.3-4.3v-1.4l-3.1-3.4h1.4l0.9-2c-0.6,0-0.9-0.3-1.7-0.9v-2.3h2.6l2.8-2.8l-1.7-0.6
				c0.6-0.9,0.6-1.4,0-1.7l-0.9,1.7l-4.3-2.6l-1.4-0.6c-2.3,2.3-5.7,3.1-9.4,2.3l-2.3-0.6l-1.1,0.6l-1.1,1.1v-5.4l1.4-1.4l-0.3-1.7
				l-6.8,2.8c-2.3,0.9-4.5,0.6-6.8-1.1c-0.9-0.9-0.9-1.7-0.6-3.4h-4.8l1.4-0.9c0-0.3,0.3-0.9,0.9-1.4l-0.9-0.6l-2.8-1.7
				c-3.4-0.6-6-2-8-4.5v-2.6c-0.3,0-0.6-0.3-0.9-1.1l-1.1-0.9c-0.3,0-0.9,0-1.1-1.1l-0.9-0.9c-0.3-0.6-0.9-0.9-1.7-0.6
				c0-0.9-0.3-1.1-1.1-1.1h-3.7l-0.6,1.7l-5.4-0.9l-0.3,2h-2.3l-3.4,4.5l-3.4-2h-4c-0.9-0.3-2-0.9-2.8-1.7l-0.6-1.4v-1.4
				c1.7-0.6,2.8-1.1,4-2.6l-1.7-1.1l-1.7,0.6l0.3,1.7c-2.3,0-4-0.6-5.7-1.4c-0.3-0.6-0.6-1.1-0.3-1.4c1.4-0.6,2-1.4,2.3-2.6
				c-0.6-0.3-0.6-0.9-0.3-1.4l-5.4-1.1l0.3-1.7l0.9-1.4c-0.6-0.3-0.3-0.9,0.6-1.7l1.4-0.9l-1.1-0.6l-0.9-2c0-0.6,0-0.9-0.6-1.1
				l-0.9,1.1l-4,0.9c0,1.1-0.3,2.6-0.9,3.7c-0.9-0.9-1.7-1.1-2.8-1.1l-1.1,0.9l-0.3,2c-0.3,0-0.6,0-1.1,0.6l-2.8,0.3l-0.6,2
				l-3.7,1.7c-0.6-0.3-1.1-0.9-1.4-1.7c-0.3,0.9-1.1,1.4-2,2v-4.3c-0.9,0.3-1.1,0-0.6-0.6l-2.6-0.6l0.6-1.4c0.6-0.3,0.6-0.9,0.3-1.7
				l-2.3,0.6c0.3,0.3-0.3,0.6-1.7,0.9c-2-0.3-3.4-1.4-4.5-3.4l1.4-2c-0.9,0.6-1.4,0-2-0.9h-2.6c-1.1-1.1-2.3-1.4-3.4-1.1l-1.4,1.1
				c-0.6,0-1.1,0.3-1.7,0.9c-0.9,0.3-1.4,0.9-1.7,1.4v4.8l1.1,1.4l-1.1,1.4c-0.6,0-0.6,0.3,0,1.4l1.4,0.3l1.7-0.3
				c1.1-0.9,2.3-1.1,3.1-0.6"/>
			<path class="st1" d="M1415.2,1110.2c1.1,0,1.7,0.6,1.4,0.9l0.6,2.8h1.7l-0.3,5.7c-5.1,2-9.4,5.4-12.5,9.7
				c-0.3,0.3-0.6,0.6-0.6,1.4c-0.6,0.9-0.6,2-0.3,3.4"/>
			<path class="st1" d="M1228.5,1514.9h11.4c-0.6,2.8-0.6,4.3,0,4.8l2,1.7l1.7,2v3.1c0.6,1.1,1.7,1.4,3.7,1.1l12.5,8.2l2.6-1.1
				l2.3,1.7l2.6,1.4v3.7h9.1l2.3-3.7c0.9,2.8,3.1,5.1,6.5,6l5.7,8v7.4c2.3,0.9,3.7,2,4.3,3.7c-0.3,1.4-1.1,2.8-2.3,4
				c0,2,0.3,3.7,1.4,5.4h8.2l1.1,2.6l2.6-1.4l1.7-4.3c2.3,2.8,4,4.5,4.5,4.8v10.2h11.4c0.9,0,1.4,0.9,2,2.3c1.7-0.6,3.1-1.7,4.3-3.4
				c1.1,1.1,2,2.6,2.8,4.3l2.3,2.6c1.7-0.9,3.1-1.7,4-2.8l4.3,1.1c0.9,0.6,1.4,1.7,1.4,2.8c2.3,0,4-1.4,4.8-4.3l8.5-2.8
				c2.6,2,3.7,4.3,3.7,6.5c0.9,0.9,2,1.4,3.4,1.7c3.1,3.4,6.5,6,10.5,7.4c0.6,0.9,1.1,1.7,2.3,2c1.1,2.3,2.8,4.3,4.8,6
				c0.3,0.9,0.9,1.7,1.4,2.6l-2,2.6l-3.4,0.6c-1.4,0.9-2.3,1.4-2.3,1.4l1.4,2.8c-0.6,2.6-2,4.5-4,6.3c-0.6,1.4-1.1,2-1.7,2.3v3.1
				l1.1,2.6l1.7,2.3v5.4c3.4-2,6-3.4,8-4.3c1.4,0.3,2.6,0.6,3.4,1.4c1.4-1.4,2.3-3.1,2.3-4.8c0.9-1.7,1.1-3.4,0.9-4.8
				c0.3-1.1,1.1-1.7,1.7-2c1.4,0.3,2.3,1.4,2.6,3.7c1.4,1.4,2.8,2.6,4.8,3.4c0.9-0.9,2-1.1,3.1-0.9c1.4,0.6,2.6,1.1,3.4,2h4.8l1.7,2
				l1.4,2.6l5.4,3.1l1.1,3.4c2.8,1.4,5.1,3.1,6.8,4.8c0,2,0,3.1-0.3,3.4v9.1c1.1,0.6,1.7,1.4,2,2.3l1.4,2.6l7.1,2.8
				c-0.3,1.7-1.1,3.1-2.3,4.5l-2.6,2.3c1.1,2.6,3.4,4.8,6.3,6.8c1.4,0.9,3.1,2,4.5,3.4c0,1.7-0.6,2.8-2,4l1.4,2.6l-8,6.5
				c0.9,1.4,1.7,2.6,3.1,3.1l3.1,1.1l1.7,2.8l-0.9,4.5c0.6,1.4,1.4,2.3,2.6,2.6h2.6l2.6-5.4v-2.6l2.8,0.3c1.1,0.3,2,0.9,2.6,1.4
				c8-0.6,14.8-2.8,20.7-7.4c0.6-1.4,1.1-2.8,1.1-4.3c0.3-1.7,0.6-2.8,1.4-2.8c1.1-0.9,2.3-1.4,3.7-1.4c1.4,0.3,2.3,1.4,2.3,2.8
				c1.7,0.3,3.1-0.3,4-1.4l2.3,1.4l8.5,3.1v4.3h2.3c0.6,2.8,1.7,4.3,3.1,4.8c3.4-2.3,5.4-5.7,6-9.9l-2.8-2.8c-0.6-1.1-0.3-2,0.6-2.6
				c0.3-1.1,0.9-2,1.7-2.6c0.9-1.7,1.4-2.6,2.3-3.1l3.1-0.9c0.9-0.9,1.1-2,0.9-3.4l3.4-4l4-0.3c1.7,0.3,2.6,0,2.8-0.9
				c1.7-0.3,3.1,0.3,4.3,1.1h6.3c0.6,1.7,0.6,3.1,0.9,3.4c1.1,1.1,2.6,1.7,4,1.4c1.7,0.3,2.8,0.9,3.4,1.4h7.4c1.7-2.6,2.8-4.3,4-5.1
				l3.1,5.7h5.1c0.6-1.1,1.7-1.7,3.1-2.3v-8c-1.1-2.6-0.9-4.3,0.3-5.4c2.6-0.3,4.8-0.3,7.1,0l2.8,2.6h3.7c0.6,2.3,1.1,3.7,1.7,4.5
				c2,1.4,3.7,1.7,5.4,0.9c1.7,0.6,2.8,1.1,3.4,2c2.8-0.3,5.1-1.1,7.1-2.8c2.8-0.6,5.4-2,6.8-4v-3.4l10.2-7.7v-4.5
				c0.3-1.1,0.6-2.6,1.1-3.4c-2.3-3.1-5.4-3.4-8.5-1.1c-2.3,0.3-3.4-0.3-3.4-1.1v-6l6.5-4c0.6-0.9,1.4-1.4,2.6-1.4
				c1.7,0,3.1-0.3,4-1.1v-5.1l-1.4-3.4c0.3-1.1,0.9-2,1.4-2.3c1.7-1.1,2.6-2.3,2.6-3.4v-3.7l4-0.3l3.4-0.9c1.1-1.4,1.4-2.6,1.4-4
				l-2-2.6v-5.4l1.4-2.6c0.3-0.9,1.1-2,2.6-3.1l-1.7-2.3l-2.6-0.9h-2.8l-2.8,0.9l-2-2.3c-0.9-1.4-1.7-2.3-2.3-2.3h-5.7
				c-0.9-3.4-1.7-6.5-1.7-9.4c0.3-1.1,1.1-2.3,2.3-3.1l0.9-2.6l8.2-8l-1.7-2l-2.8-0.9c-0.9-1.1-0.9-2-0.3-2.6l2-2c-0.9-2-2-3.4-4-4
				l-2.3-1.1c-2.6,0.3-4.8,1.1-6.5,2.3l-3.1,1.1l-6.5-2c-1.7,0.3-2.3-0.6-2-2.3c2.6-4.3,3.4-8.2,2.3-12.5h-3.1
				c-1.4-0.3-2-0.9-2.6-1.4c-0.6-1.1-0.6-2.3-0.3-3.7v-4.3c-0.9-1.1-1.7-1.7-2.6-2c-1.7-0.9-2.3-2-2.6-3.4l-3.1-4.8l-0.9-3.4l-2.3-2
				c0-1.1,0.6-2.3,1.1-2.8"/>
			<path class="st1" d="M1580,1517.5c-0.6-2-1.4-2.8-2.8-3.4c-2,0-3.1,0.6-4,1.1h-5.7c-0.6,1.1-1.4,1.7-2.6,1.7
				c-0.9-0.3-1.7-1.1-2.3-2.8v-11.4l-3.7-0.3c-1.4-0.6-1.7-1.7-1.7-2.8c1.7-2,3.1-4.3,3.7-6.3c-1.7-2.6-3.4-4-5.4-4.5
				c1.1-2.3,2.8-3.7,5.1-4.3v-4l3.4-0.9c-0.9-2.6-2.6-4-5.7-4.3c2.3-1.1,4.3-2,5.1-2.3l-0.6-2.6v-7.4c1.7,0,3.1,0.6,3.1,1.1
				c1.4,1.1,2.8,1.4,3.7,1.1l2.6,0.6c0.3-1.4,1.1-2.3,2.6-2.6c0.9-0.9,1.1-1.4,0.9-2.6l-1.1-2.6l-21.9-10.5c0.6-2.6,1.4-4.3,3.1-5.1
				l3.1-1.7c0.9-2,1.4-3.1,2.3-3.4l2.8-1.4c0.6-2.3,0.6-3.4,0.3-4c0.9-3.7,1.7-6,2.8-7.7c0.6-1.4,1.4-2.8,2.3-3.4
				c-0.9-0.6-1.1-1.7-0.9-2.8l-1.4-3.7l1.7-2.3c0.9-2.6,1.1-4.8,0.9-6.5c0.3-1.4,1.1-2,2-2.3l4.3,3.1l2-4.3c0.9,0,2.3,0.3,3.1,1.1
				l3.4-0.3c0.6-1.7,0.3-3.1-0.9-4.3c3.4-2,7.4-3.7,11.4-4.8l1.7-2.3c0-2,0.3-3.7,0.9-5.4c-0.9-0.9-1.7-1.4-2.6-1.1
				c-1.1-0.3-2-0.6-2.6-1.1c-0.3-1.7-0.9-2.3-2-2.8l-1.7-3.4c0-1.1,0-2.3,0.9-2.8l-1.7-4.8l4-0.6c1.1-0.6,2-1.1,2.3-2.3
				c1.1-0.6,2.6-1.1,4-0.9l2.6-0.9l0.6-2.8l4.5-3.1l-2-3.7c2.6-2.6,4.3-5.4,5.4-8c-2.3-3.1-4.8-5.7-7.7-8l3.4-7.7h3.1l1.7-2.6
				l4.5-1.7v-11.4c1.4-1.4,2.8-2.3,4.3-3.1l1.1-2.6c-0.3-2-0.9-3.1-1.4-3.7l4.8-8.5c4.5,0,8.5-1.7,11.7-4.3l3.1-0.9
				c3.7-0.3,7.1-1.1,9.9-2.3c-1.1-2.8-2.3-4.8-3.7-5.7v-3.4h2.6l-0.6-3.1l-2.3-2c1.4-0.9,2.6-1.4,3.7-2v-4.3l-0.9-6l4.5-3.1l3.1,1.4
				h6.8c0.6-0.9,1.4-1.4,2.3-1.7c1.4-0.9,2.6-1.7,3.1-2l5.7-5.4"/>
			<path class="st1" d="M1331.3,550.6c-2.3-1.4-3.7-4-5.1-7.7c0.9-1.1,1.4-2.8,1.1-4.5l4-12.8l1.7-2.8l-2.3-2.3
				c-5.1-1.4-9.7-4.3-13.9-8.5h-5.1l-3.4,2.6h-4c-0.9,2.3-2.6,3.7-4.5,5.1l-2.3-1.7l-2.6-0.6c-0.9-0.6-2-0.9-3.7-1.1
				c-1.4,0.3-2.6,0.9-3.4,1.7v-22.2l-6.8-5.4v-3.7l-13.9-14.5c-1.1-0.9-2.3-2-2.6-3.1c-1.4-0.9-2.3-2.6-2.8-4.8c0.3-1.7,0.9-2.8,2-4
				l2.6-5.7c1.1-6,4.3-10.8,9.4-15.3l-2-4.5c-0.3-1.1-0.6-2-1.4-2.6l-6.8-18.2l-5.4,0.9h-7.7c-1.1,0.3-2-0.6-2.6-2.3
				c0.3-0.6-0.3-1.4-1.7-2.3c-0.9-0.6-0.9-1.4-0.6-2.8c0.9-0.6,1.1-2,1.1-4c-0.3-0.3-1.1-0.9-2.8-0.9l-6.5,4.3v3.1l-4.8,8.2l2.6,3.4
				v3.7l-3.4,2.3l0.6,3.7c-0.6,0.6-1.7,1.1-3.7,1.7l-21.6,20.7c-0.3,1.4-0.9,2.3-2.3,3.4c0,1.1-0.6,2.6-2,3.7l-2.3,4.3
				c-3.1,0.3-5.1,0-6.3-0.9c0.6-1.4,1.1-3.1,1.4-6c-1.1-0.3-2.6-1.1-3.7-2.3c-0.6-0.6-0.9-1.4-0.9-2.8l-3.1-1.7l-7.1-0.3
				c-0.6-0.3-1.7-0.6-2.8-0.3c-0.9,2-1.4,3.1-2.3,3.7h-3.7c-7.7-2.3-15.6-2.3-24.2,0.6h-9.1l-1.4-2.6l-2.8-0.6v-9.7l2.6-0.9
				c2-1.1,3.7-1.7,4.8-1.7c0.6,2.6,2,4,4.3,5.4c1.1-1.1,2.3-1.4,3.4-2l10.8,4.8l2.8,1.7l0.9-2.6c-0.9-0.6-2.3-1.4-4.3-2l-3.1-15.3
				c0.6-0.9,1.1-1.4,2.3-1.7c-0.3-0.6,0.3-1.4,2-2.8c2.3-0.3,3.4-1.7,3.1-4.3c-1.4,0-2.3,0-3.1-0.9l2.6-10.2v-3.7h-8.2l-1.1-2.8
				c0-1.7-0.6-3.4-1.7-5.1c-0.6-0.6-1.7-1.1-3.7-1.4l-6,0.3l-2.6-1.1c-0.3-1.1-0.9-2.3-1.7-3.1l-2.6-1.4h-3.7l-5.7,4v8l-7.7,0.6
				c-1.7,4.5-4,9.4-7.4,13.4c-1.4,0-3.4,1.1-5.7,2.8c-0.3,2.8-0.9,5.1-2,7.1l-3.1,0.9c-3.1,0.3-5.7,1.7-7.4,4.3
				c0,3.7,0.6,8,1.1,12.5l-9.9-0.6c-0.6,1.7-1.7,2.8-3.7,3.1l-2.3-2.3l-2.6-1.1h-2.6l-13.1-3.1l-4,0.3h-7.1
				c-3.4,3.1-7.4,4.8-11.7,4.3v-20.7c1.7-3.7,4-7.4,7.1-10.2c0.3-0.3,0.3-1.1-0.6-2.6l-3.7-4.5l-3.1-2.3h-3.7l-12.2,4.5l-9.7,0.3
				l-2.3,3.4c-0.9,1.1-2.8,1.4-5.7,1.1l-4.8,0.6l-2.3,1.7l-12.8,6.3c-2.6,1.7-5.7,2.8-9.1,3.7c-0.9,0-2,0.6-3.1,2.3
				c-0.3,0.9,0,2.3,0.3,4h9.4v4.5l-3.1,3.7c0,0.9,0.6,2,1.1,3.4l-2.6,1.7c-0.6,0.3-1.1,1.1-2,2.6l1.4,2.8c0.9,0.9,1.1,2,1.1,2.8
				l1.7,3.1c1.1,2.3,2,3.1,2.6,1.7l4.8,6.8l9.9,11.9c-0.6,1.4-2,2.3-3.4,2c-0.9,0.3-0.3,1.1,1.4,2.6c0.6,0.9,0.6,2-0.9,3.4l-5.4,0.3
				c-8,6.8-16.5,7.1-25,1.4c-1.7,1.1-3.7,1.4-6.3,1.1c-0.3-4.5-1.1-7.7-2.3-9.4h-48.6c0,2,0.6,4,1.7,6c1.1,1.4,2,2.3,2.3,3.1
				c2,1.7,5.1,3.1,9.1,4"/>
			<path class="st1" d="M1214,425.2c0.3,2-0.3,3.4-1.1,4.8c-1.7,0.6-3.1,1.4-4.5,2.8c0,1.4,0.6,3.1,1.4,5.1c0.3,1.7-0.3,3.4-1.4,5.1
				l-5.4,0.3l-4.3-3.7l-3.7,0.3c-1.7-0.9-2.3-2.3-1.7-4.5l2-8.5l3.4-0.9l3.7-3.4c1.4,1.4,2.8,1.4,4.5,0.6l4.8-0.3L1214,425.2"/>
			<path class="st1" d="M1287.6,646.9h3.1l1.7,0.3l5.1-1.7h4.8c4.3,1.4,8,0.3,10.5-3.4h3.1c2.8-2.8,3.7-6.5,2.3-10.8h6.5l4.8,5.1
				c1.7,0,2.8-0.3,4-1.4l0.9-1.4c-0.3,0.6,0,0.6,0.6,0c0.6-1.4,1.7-2.8,3.4-4.8l0.6-1.7l1.1-0.6l1.7,0.3l0.6-2.8L1341,602
				c-0.9-1.4-2.3-2.6-4-3.1l-5.7-8l-2-0.3l-2.8-2.8c0-1.4-0.3-2.3-1.1-2.8l-1.4-0.3h-1.4v-24.4l6.5-7.7l2.3-2"/>
			<path class="st1" d="M920.9,492.6l-12.2,10.2l-9.7,11.4c-1.4,3.4-3.7,6.5-6.5,9.1l-1.7,2.8l-6.5,8.5l-7.1,6l-11.4,5.7
				c-0.9,1.1-2.3,2-3.7,2.6l-4.3,5.1l-2.6,1.4c0.3,0.6-0.9,1.4-3.1,2h-2.8l-2.3,2.6c-0.6,0.9-2,1.4-3.4,2.3l-5.4,4h-3.7l-1.7-2.6
				c-1.1,1.4-2.8,2.3-4.8,2.3l-2.8-3.7l-2.3,0.9c-2.3,4.3-6.3,7.4-10.8,9.4l-1.4,3.7c-0.3,0.6-1.4,0.6-3.1,0l-3.1,0.3
				c-1.1,2-2,4.5-2.8,7.7h-6.8l-2.3,2.3c-1.4,0-2.6-1.4-3.1-3.7c0.3-2-0.3-3.1-2.3-3.4c-0.9,0.6-1.7,1.1-2.3,2.3v4.8
				c0.6,2.6,0,3.7-2.3,2.8c-1.4,1.4-3.1,2.3-5.1,3.1l-2.6-0.9c-1.4,1.4-2.8,1.7-4.3,0.9l-1.7-4.8l5.4-5.1l-2-3.1l-2.8-0.6l-10.2,7.4
				l-2-1.7h-2.6l-3.7-0.3c-1.1,1.7-2.6,2.6-4.8,3.1l-2.3-1.7l-2-2l-2.8,1.7c0.3,1.4,0,2.6-0.9,3.1l-4-3.7c-1.4-0.6-2.3-1.4-2.8-2.3
				v-21.6c0.9-0.9,1.7-2.3,2.3-5.1c-3.4-0.3-6-2-7.7-4.5l-2.3,1.7c-1.1,0.6-3.1,0.6-6,0v-6.3l-12.2-1.4c-0.9,0.6-1.4,0-2.3-1.7h-9.1
				l-2.8-1.7c0-1.1-0.6-2.6-1.4-3.7h-4.8c-2.6-3.1-5.4-5.1-9.1-6.3h-2.6c-0.9,1.4-2,2.3-3.4,2.6l-3.1-1.4l-1.7-2.3h-4
				c-0.3-2.6-2-3.4-5.1-2.8l-5.7-6.3c-1.1,1.1-2,2.8-2.8,4.8c0.6,0.6,0.6,1.4,0.6,2.6c-1.4,0.6-2.3,1.4-2.8,2.8
				c1.1,1.4,1.4,2.6,1.1,3.7c-1.1-0.9-2.6-1.7-4.3-2l-1.4-2.3l-2.6-2.3l-4,4.3l-3.4-1.4l-1.7,2.3c0.3,1.1,0,2-1.4,2.6
				c-1.1,0-2-0.3-2.8-0.9c0-1.1-0.6-2-2-2.3c-1.7-0.3-3.1,0.3-4.5,2c0,1.1,1.1,4,2.8,7.7v11.7c0.3,2,1.4,3.4,2.8,4.3l-1.4,2.8
				l-31.3,3.4l-2-1.7c-0.6-0.9-1.7-1.4-3.1-1.7l-3.1,0.3l-2-2c0-1.1-0.6-2.8-2-4.5l-2.6-2.8l-2.3,1.7c-0.9-0.3-1.7-1.7-2.6-4l-2-1.7
				l-2.8-1.4c0-1.7-0.3-3.4-1.1-4.5"/>
			<path class="st1" d="M918.7,701.5l-1.1-2.3l-2.6-1.1l-4.3,1.7c-0.3,2.3-1.4,4-3.1,4.5h-3.7c-2-1.4-4-2.8-5.4-4.8l-1.7,1.4
				l-1.1-0.6v-5.1c3.4-2.3,5.4-5.4,5.1-9.1l-5.7,0.3l-0.3-2c2-4,2.6-8.2,1.4-12.8l-6.5-4.5c-0.6-2.6,0-5.4,0.9-8.2
				c4-1.7,7.7-4.3,10.8-7.1l1.1-2c0.9-2.3,2.6-4,5.4-4.8c3.4,0.6,6.8,2.3,9.7,4.5l4.3,0.6l2.8-1.7c4-3.4,8.5-4.8,13.4-4.3h3.7
				l4.3-2.6c0.3,0.6,0.3,0.3,0.3-0.6c3.7,0,6.3-2,7.7-5.4l0.9-6.3v-20.2l0.9-4.5l-6-1.7l-0.3-1.4l1.7-2.6c0.6-0.6,0.6-1.1,0.6-2.3
				l-0.6-1.4c-0.6-1.1-0.6-2.3-0.3-3.7l-0.6-2h-1.7c-0.6,0.3-0.9,0.9-1.1,2l-1.7,0.6l-1.1-0.9c-0.9-1.4-1.1-2.8-0.9-4h2.8l1.1-1.4
				l-2.3-2.6l-0.9-6.3l-2.6-3.1l1.1-1.1v-2l-0.9-2v-5.4l-1.4-0.9l-2.6-3.7l0.9-1.1v-4h4.8c1.7-1.7,2.8-4.3,2.8-7.4l2.8-2
				c2.3-3.4,2.6-6.5,1.1-9.7l-12.2-3.7l-3.4-2c-1.1-0.9-2-2-2.8-3.1l-2.6-3.1c-1.1-5.1-0.3-9.7,2.6-13.9l-1.4-5.7v-2l-1.4-2.8
				l-3.4-3.1l-5.1-2.6"/>
			<path class="st1" d="M1227.6,700.4l-1.4-1.7l-2,0.3l-1.4,1.4c-1.7-1.1-2.6-3.4-2.6-6.3v1.4h-2.6c-1.7,0.9-3.1,2-4.3,3.7
				c-3.7,1.4-7.7,1.7-12.5,1.4h-2.8l-3.7,2.3l-0.6,2l0.6,1.1l0.6,3.1c-0.9,0-2,0.3-3.1,0.9l-4.5,0.3l-1.4,1.4h-1.7l-2.8-1.7h-2.3
				l-1.1,0.3l-1.4,1.7l-1.1,2.3c-2.6-0.6-4.3,0-5.7,1.7l-2,1.1l-0.9-1.1l-2.8,1.7h-2.3l-0.6-1.7l-0.9,1.1l-3.7,1.7
				c-0.6,0-1.1,0-1.7-0.6h-0.3V712l-1.4-1.1l-0.3-2.8l-1.4-0.3l-1.1-1.4c-1.1,0.3-2-0.3-2.8-1.1l0.6-3.1h-1.1l-0.9-4.8l-1.1,2.3
				l-2,0.9c-0.3,0.3-0.6,0.6-0.9,0.6c-3.4,2-5.7,5.1-6.8,8.8l-2.8,1.4l-3.4-3.4l-1.7,0.3l-5.4,0.6v4.3l-1.4,0.9
				c-0.3,0-0.6,0.6-1.1,1.1l-2,0.6c-3.4,2-5.4,5.4-6.5,10.2c-0.6,0.9-1.4,1.4-2.8,1.4l-1.1-1.4l1.1-1.1c0.6-0.3,1.1-0.6,1.4-1.4
				l2.8-3.1c-0.6-0.9-0.3-1.4,0.3-1.7c-0.3-1.1-0.3-2.3,0-3.1h-7.4l-0.6-1.7l-1.4-0.6v-4.5l-1.7-0.6v2.6l-2.3,1.1
				c-2.6,2-5.1,2.6-8.2,1.4h-3.7l-3.4,0.3h-1.7l-2.3,2.3v3.1l-1.4,1.4h-2.6l-1.4-2.8l-3.1,0.9v8.2c-0.9-0.3-1.1,0-1.4,0.6
				c-0.6-0.6-0.9-0.3-0.9,0.3l-0.9,3.4l-1.1-0.9h-1.4c-1.1,0-2.3,0.3-3.1,0.9l-0.9,1.1c-0.3,0.6-0.9,1.1-1.7,1.1l-0.9-1.4l-1.1-3.4
				l-1.4,0.3l-2.6,0.3c-0.6-0.3-0.9-0.9-0.6-2.3l0.3-1.7h-5.1l-1.7-0.3l-0.6-1.4c-0.6-0.6-0.9,0-1.4,0.9l-2,1.4l0,0l-2.3,1.4
				c-0.6,0.6-1.1,1.4-0.9,2.3v1.4c-0.9,0.9-2.3,1.1-3.7,1.4v-2l-1.1-1.1l-2.8-2.3l-6-2.8l-1.7-1.4v-1.4c-0.6-1.1-1.4-1.4-2-1.7
				l-2.3,3.4l0.3,1.1l2.3,3.7c-0.9,0-1.1,0.3-0.9,1.1l-2.6,1.1l-0.3,1.7h-3.4l-1.7-2h-1.4c-0.3,0.6-1.1,0.9-1.7,0.9l-1.4-1.7v-3.1
				l-1.7-0.6l-0.6-1.1c0-1.1,0-1.7,0.3-1.7l-3.4-0.9c0.3,0.9,0,0.9-0.6,0.3l-7.1,4.3c0,0.9,0,0.9-0.9,0.3l-1.1,1.7
				c0,0.9-0.3,1.7-0.9,2l-1.4-1.1v-2.6c-0.9,0-1.7,0.3-2.3,0.6c-0.3,0.9-0.9,1.1-2,1.1l-1.7-2.3c-1.1,2.3-2.3,3.4-4.3,3.7
				c-0.3-0.3-0.3-0.9-0.3-2.3c0.6-0.3,0.6-1.1,0.3-2.3l-2.8-0.3l1.7-2.6c0-1.4,0.3-2.6,0.6-3.7l-3.4,0.6l-6,0.3l-0.6-1.7l1.7-2.3
				c-0.3-0.6-0.6-1.4-0.6-2c0.6-0.9,1.1-1.1,2-1.4v-1.7c0.3-0.3,0.9-0.6,1.4-0.9l1.4,0.3c-0.6-0.6-0.3-1.4,0.6-2l-1.7-2.3h-1.4
				l-1.4-0.6c0,1.7-0.3,3.4-0.9,4.8l-2.3,0.3l-2,2.3c0.3,1.7,0.3,2.8,0,4l-5.7-1.1c-0.9,0.3-1.7,0.3-2.3,0l1.4-2.8l2-1.4l-0.3-2.3
				l-1.1-0.6H959l-1.4,2.3h-4.5l-8.8-9.9h-8.5c0-0.9-0.3-1.1-0.6-1.1h-5.4l-2,3.1l-2.6,0.9c-0.9,0.9-2,1.4-3.4,1.1h-1.4v-1.4
				l-1.7-0.6"/>
			<path class="st1" d="M990.6,783.9c-1.4-0.9-3.1-1.1-5.1-0.9c-0.9,1.1-2,2-3.1,2.6l-1.1-1.1l-1.7-0.6l-0.9,1.1l-1.7,5.7h-1.7
				c0,1.4,0,2.6-0.6,3.7l-2-1.7c-1.1,0-1.7-0.3-2.6-0.9l-2.6-0.3l-2.3-1.4h-11.7l-0.6,1.4c-1.7,2.8-4.5,5.1-7.7,6H942l-0.6,1.4h-1.7
				c-0.3,1.1,0,2,0.3,2.3l1.7,2v4H940l-1.4,1.4l-1.1,0.6l-1.1,1.1c-2.3,2-3.4,4.3-3.1,7.1l4.3,2.8l-1.1,2c0,1.4,0.6,2,1.4,2.6
				c0,1.1-0.3,1.7-0.9,1.7c-0.3,2.6-0.9,4.8-1.7,6.8l-2.8-2c-0.9,0.6-1.4,1.1-1.7,2h-5.1l-1.7,0.6c-0.6,0.9-0.9,1.4-0.9,2v5.4
				l-3.7,2.3l-0.9,3.4l3.7-1.4h2.6v5.1l1.7,0.9l3.7-2.3h2.3v4l2.6,1.4c1.1-0.3,2-0.9,2.6-2h1.7c0.6,0.3,0.9,0.3,1.4,0.3
				c0.6-0.3,0.9-1.1,0.6-2l0.6-1.4h3.1c0.6,0,0.9,0.3,1.1,1.4c-0.9,1.1-1.4,2-2,2.3l-1.1,1.1v3.1l1.1,0.9c0.9,0,1.7,0.6,2.6,1.4h3.1
				l1.4,6.5v0.6c0.6,0.9,0.9,1.7,0.6,2.6l2.3,3.1c0.9,0.3,1.7,1.1,2.3,2h3.1l2-1.4c0.9,0.3,1.4,0.9,2.3,1.4l1.4,1.7l2.8-0.6h3.4
				l5.7,2.8c-0.3,1.1-0.3,2,0,2.8c0.3,0.6,0.9,0.6,1.4,0.6l7.7-4.3l2.3-0.6l2.3-0.9c1.4-0.6,2.8-1.1,4-2.3l1.4-0.6l1.1-1.7
				c0,0.9,0.3,1.1,1.1,1.1c2.6-0.9,5.4-2,8.2-3.7l1.1-1.4c3.1-2,6.8-3.4,10.5-4.3l0.9-1.4l-12.8-8.5c0.6-0.6,1.4-0.9,2.3-1.1
				l0.6-1.4h-3.4c-0.3,0-0.9,0-1.4-0.6l3.4-3.7l0.9-1.1h2l1.7,0.3l1.7-0.9c0.6-0.6,1.4-0.6,2.3,0l1.4,0.3l0.6-1.4l-3.7-3.1
				c-0.3-1.4-0.9-2.6-2-3.4l-0.9-1.1v-1.7c0-1.4,0-2.6,0.3-3.4v-2.6l-2-2.8v-2.3l-2-3.1h-4.3l-1.1-1.7c-0.3-0.3-1.1-0.6-2-0.6
				l-1.4,1.1L996,816h-1.4l-0.9-1.4l-0.3-1.7l2-2.8l0.6-2v-1.7h4l-1.4-4.3l-2.6-2.6c-0.6-0.6-0.3-1.4,0.3-2l2.6-1.7l-2.6-1.4h-1.4
				v-1.1c0.3-0.6,0.9-1.1,1.4-1.1l-3.7-2.3v-2.6l-2,1.1c-0.9-0.3-1.4-0.9-1.7-1.7c0.3-0.6,0.9-0.9,1.7-1.4V783.9"/>
			<path class="st1" d="M859.8,918.4l1.4-3.4l0.6-2.6h1.4c0.3,0.6,0.9,1.1,0.9,2l0.3,2.6c1.7-0.9,3.1-1.7,4-3.1l4.8-0.3v-2.3
				l3.1-2.3l-0.9-1.4v-1.7c0.3-0.9,0.9-1.1,1.7-1.1c0.3,1.1,1.1,1.7,2,2l1.4-1.4c0-0.6,0-1.1,0.6-1.1c0.9,0.6,2,1.1,3.1,1.4l0.9,0.9
				c0.3,0.9,0.3,1.1,0.6,1.4c1.7,0,3.1,0.6,4,1.7l2,2.6v5.7l1.4,1.1h12.8l5.1,5.4h2c2.8,1.1,4.3,3.4,4.5,6.5h2.6l6.3-6.3h3.1
				c0.6-0.6,1.7-0.9,2.8-0.6l1.4,0.9c1.1-0.3,2.3,0,3.7,0.9c0.3,1.1,0.9,1.7,1.7,2.3l2.6-1.7l0.9-0.3l4.5-3.7c0-0.6-0.3-1.1-0.9-1.1
				c-0.6-1.7-0.3-2.3,0.9-2.6c0.3-0.9,0.3-1.1,0-1.4l-0.9-1.1l0.9-1.4l1.1-3.1l0.9-1.4h1.7l1.1-6.5l1.7,0.6v9.7h2l1.4-0.9v-7.7
				l-1.4-1.1l0.9-1.4l1.7-0.6l1.7,0.3c0.6,0.9,0.9,2,0.6,3.1c1.7,2.6,2.6,5.7,3.1,9.1h2.3c0.6-0.9,1.7-1.4,3.7-1.4l3.7,0.6l0.6-1.1
				v-1.4l-0.6-1.1l-1.1-1.4v-4l0.6-1.7h7.4c0-0.9,0.6-1.4,1.4-2l2,0.9l1.1-0.9l1.1-1.4h4l2,0.6h2.6c6.3-4.3,11.9-8.5,17.9-12.8
				c0.9,1.1,2,1.7,3.4,1.7h2c0.6-0.6,1.1-0.9,2-0.9l1.1,1.4l4.8-3.4l1.4,1.7v1.1l-4.3,4.5v1.7l1.7,1.4l2.3-1.7l1.1,1.1v1.4
				c-0.3,0.9-0.6,1.7-0.3,2.3c0,0.6,0.6,0.9,1.4,1.1c2.3,4,5.7,5.1,10.2,3.4l0.9-1.1c0.3-1.1-0.3-2.3-0.9-3.1l-2.6-2l0.6-1.4
				l1.4-0.3l1.1,0.9c4-0.6,7.4-2.6,10.2-6c0.6,1.1,1.4,2.3,1.7,3.4l1.1-0.3c0-1.4,0.6-2.3,2-2.6l1.1,0.9h1.1l3.1-5.4l-0.6-1.4
				c0,0,0.6-0.3,1.4-0.6c0-0.6,0.3-1.1,1.4-1.7h1.1l1.4-0.3l2.3-2c-0.6,1.7-0.6,3.4,0,5.1c0.6,0,0.9,0.6,1.1,0.9
				c0.3,0.3,0.6,0.9,0.3,1.4l-1.7,2.3v3.1c0.6,1.1,1.7,1.7,2.8,2.3l1.4-0.3h2l0.3-1.7h4.3l2.8,1.1l1.1-0.9l1.1,0.6l0.6-2.3l1.4-0.3
				l1.7,0.9l1.1-1.7l0.3-2l1.4-0.6l-0.3-1.4l1.1-0.9l1.7-0.6c-0.3-0.6-0.9-1.4-1.7-1.7l-3.1-1.4c-0.6-0.9-0.6-2-0.6-3.1l-1.4-2.8
				h-0.9l-1.1-1.1v-2.6c0.3-0.6,0.9-1.1,1.4-1.7c0.9,0,1.4-0.3,1.7-0.9c0-0.9,0-2,0.6-2.6l1.7-2.6l-2.3-2v-4.5
				c-1.1-0.9-2-1.4-2.6-1.7l5.1,1.7l2,2l1.7,0.6l3.1-0.6h8.8c0.9-0.9,1.4-1.4,2.6-1.4v5.4h1.4c1.1-0.9,2.8-2,4.5-2.6l0.6-1.1v-0.9
				l1.1-1.1l2,5.1c0.6-0.3,1.1-0.6,2-1.4l0.6-1.4c0.9-0.6,1.1-1.4,1.1-2.8v-3.1h1.4l2.8,1.1l0.3-1.4l1.1-0.9l1.4-0.6l2-1.7l2.6-0.9
				h1.1l2.3,4.3l1.7-0.6h4.3l1.1,1.4l0.6,1.4c0.3-0.9,1.7-1.1,3.7-1.1l5.4,4l0.3,1.4l-1.1,1.7c0.9,1.1,2,2,3.4,2.3l1.4,2.3v3.1
				l1.1,1.1h5.7c0.3,0.3,0.6,0.9,1.4,0.9c0.3-0.6,0.9-0.9,1.4-0.9l1.4,0.6c0.3,0.6,0.6,1.4,0.6,2.3l-3.7,1.4
				c0.9,0.6,1.1,1.7,0.9,2.6c0.3,0.9,0.9,1.7,1.4,2l2.6-1.1l2.3-2.6l0.6,1.1l1.4,0.9c0.6-0.6,1.4-1.1,2-1.1c0.3,1.1,1.4,1.7,2.6,1.7
				l1.4-1.7h1.7c0.3,0.9,0.9,1.1,1.7,1.1c0.3-1.1,0.9-1.4,2.3-1.1l0.3,2.6l1.1,0.6l2.3-0.3l2-1.7v-4l3.7-1.7v2.6h2.6
				c0.3,0.9,0.3,2.3,0,3.7l-1.4,1.7c-0.3,0.6-0.3,1.1,0,2c1.4,0.3,2.3,1.1,2.8,2.8c-1.7,0.9-2.8,2-2.8,3.7l4.8-0.6l1.7,2.3l3.4,2.3
				v-3.7c0.3-0.6,0.9-0.9,1.7-0.6c0.6,0.6,1.4,0.9,2.3,1.1l1.4-0.9l1.1-1.4h3.4v-3.1c1.4,0.3,2.8-0.6,3.7-2v-1.7
				c0.3-0.3,0.6-0.3,1.1-0.6c1.1,0,2-0.3,2.3-1.1c-0.6-0.9-1.1-2-1.1-3.1h3.4l1.4,1.4c0.6-1.1,1.4-2.3,2.3-3.1
				c0.9,0.3,1.4,0.6,2,1.1l3.4,1.7h4v2.8l5.1,3.4c0.6,1.1,0.9,2.6,0.9,4"/>
			<path class="st1" d="M854.7,801.3c-0.6-0.9-0.3-1.4,0.9-1.7l-2-1.7l-2.6-0.6c-0.6-0.6-0.6-1.1-0.3-1.7c0-0.3-0.3-0.9-0.9-1.7
				l-0.9-1.4l-2-2.6h7.7c2.3-1.4,4-3.1,5.1-5.1c-0.9-1.1-2.3-2-4-2.8l-1.7-0.3v-6.5c0-0.3,0.3-0.9,0.6-1.4l2.8-0.9
				c-0.6-0.3-0.6-0.6,0-0.9l0.3-2c2,1.1,4,3.1,5.7,5.4c1.4-1.1,3.1-1.4,4.5-0.6v3.7h6.5l0.3,2.3c0-0.6,0.6-0.9,0.9-1.4l2.8-1.7
				c-1.1-0.3-1.7-0.9-2.3-2h2.8l2,0.3c0-1.1,0.3-2.3,1.1-2.8l2.6-2.6l-3.7-3.1v-2l3.7-0.6c0.3-0.6,0.3-1.1,0-2
				c-0.6-0.3-0.9-0.6-0.6-1.4l2-1.1l-0.9-2.6c-0.9,0.9-1.7,1.1-2.8,1.1l-1.4-1.4v-4.8l-4-1.7v-2c0.3-3.1,1.7-5.1,4.5-5.4l0.9-8.5
				h1.7c-0.9-0.6-0.9-0.6,0.3-0.9l4-0.9l6.3,3.4h2c1.7,0.3,3.4,0,4.8-0.9l0.3-1.4c0.6-0.3,1.1-0.3,1.7-0.6c1.1,0.6,2.6,0.3,3.1-0.9
				c0.3-0.6,0.9-0.9,1.4-1.1l1.7,0.6v-1.4l4.8-6.3v-4.3L909,716l1.1-1.1c1.7-0.6,3.4-1.1,5.7-0.6l2.3-3.1l-1.4-1.1v-4l2-4.5"/>
			<path class="st1" d="M772.9,902.4c1.4-0.3,2.8,0,4,1.1h1.1l2.3-2.6l1.4,1.7l-0.3,2.3c2.3-0.3,4.3-0.9,6.3-2l1.1-0.3l4.5,1.7
				c0-1.1,0.3-2.3,0.6-3.4c0.6,0.9,1.1,1.1,2,1.1l1.4-1.4c0.6-0.6,0.9-1.1,0.6-2l-1.4,0.6l-0.3-2.6c-0.3-0.6-0.3-1.4,0-2.3
				c-0.9-0.3-1.1-0.9-1.4-1.7l0.3-1.4c-0.6-0.3-1.4-0.3-2.8,0l-2.6,2l-1.4-4.3l0.9-2.6V882c0.3-0.6,0.9-0.9,2-0.9
				c-0.6-0.6-0.3-0.9,0.6-1.4l-0.6-2.8c1.4-3.1,4.3-5.4,7.7-7.1l2.6,2.6c0.3,0.6,0.6,0.9,1.1,0.9c1.1-0.3,2.3,0.3,3.1,0.9l0.9,0.9
				l-2.6,4.5h3.4l2.8,1.1l3.1-1.4l1.4-1.7c0.3-1.7-0.3-3.1-0.9-4.5l4.3-3.4c-0.3,0.9,0,1.7,0.3,2.3c0.3,2.3,1.1,4,3.7,4.5
				c0.3,0.6,0.9,0.9,1.7,1.1c0.9-1.7,0.9-3.4,0.6-6l3.1-2c2,1.1,3.4,2.3,4.5,3.7l3.1-3.1l-0.3-2c0.6-0.9,1.7-1.1,3.1-1.1
				c0,0.3,0.9,0.6,1.7,0.9v-1.7l1.4-0.9v-4.3c0.9,0.3,0.9,0.3,0.6-0.6c1.7-0.3,2.8-0.9,3.4-1.7v-4.3c0.9,0,1.1-0.6,1.1-1.7l0.6-2.3
				c1.1-0.3,1.1-0.9,0.3-1.4c0.6-0.6,0.6-0.9,0.6-1.7c0.9-0.6,1.1-1.4,0.6-2.3l-2.6-3.4v-2.6c0.9-0.9,0.9-2.3,0.9-3.7h-7.1l-1.4,1.4
				l-2-0.3v-3.1l-2.3-2l3.7-1.4c0.9-1.7,2-2.8,3.4-3.7l2-2.3c-0.9,0-1.4-0.6-1.7-1.7l3.4-2.3l-0.9-4.5l1.4-1.4l1.4-0.6
				c-0.3-0.6-0.6-1.1-0.3-2l5.7-1.7l0.3-1.7l-0.9-1.4l2.6-2.6l0.9-2.8"/>
			<line class="st1" x1="853.3" y1="801.3" x2="854.7" y2="801.3"/>
			<path class="st1" d="M1058.8,1028.6h-2.3l-2.6,1.4h-0.9c-1.4,0.3-2.8,0.9-4,1.7l-6.5,3.7h-3.7l-0.6,1.1l-5.4,2.3h-1.4l-3.4-2.6
				v-6.3l-1.4-0.3l-3.1,1.1h-1.7c-0.6,1.1-1.7,1.7-3.1,2.3l-2-2l-1.7,2.6c-0.6,1.7-1.1,2.8-2.6,3.4l-1.7-2.3l-0.3-1.7l3.7-3.1
				l-1.1-5.1l1.1-1.1l3.1-0.6c0-1.1-0.9-2.3-2-3.1l-1.4-1.1l-0.3-1.7l-8,3.1c-1.4-4.8-4.3-6.3-8.5-4c-0.9,0.6-1.7,1.1-2.8,1.1
				l-1.1-0.9l-0.9-1.1l-1.7-3.1h-1.4c-1.1,1.1-2.3,1.7-3.7,2l-1.4-1.4l-3.1,0.6h-2.6l-1.4-0.9l-2.3,3.1h-5.1l-0.9-0.6l-2.3-1.1
				l-1.7,1.7l2.3,2.3v1.1h-1.4l-2-1.7c0.6,0.6,0.3,1.1-0.6,1.1l-1.4,2.3h-1.7l1.4,2c0.3,0.6,0.6,1.1,0.3,1.4l-3.1,1.4
				c0,1.4-0.6,2-2,2l-0.9-1.7l-2.3-2.6l1.7-2l1.4-0.6l0.6-2.3l-0.9-4l2.6-2.8c-0.3-0.3-0.3-0.6,0.3-1.4l-4.8-1.1l-2.3,0.9l-1.1,1.1
				l-1.7,0.6l-2-1.7l-2.3,2.3l-1.4-0.6c-0.6-2.3-0.9-4.5-0.9-6.5l-2.8-1.7l-3.7-4.5v-2c-0.6-0.9-1.4-1.4-2.8-1.4
				c0.3-1.7-0.6-3.1-2-3.7l-2.6,1.7c-2,0-4,0.3-5.7,1.1c-1.1-1.4-2.6-2.3-4.3-2.6l1.1-0.9l1.4-1.7l0.3-2c-0.3,0.3-0.3-0.3-0.3-1.7
				l-2.3-4.3l2-0.3l1.7-2c-0.9-0.9-1.1-1.7-1.1-2.3l-2.8-1.1l-3.7-1.1l-2.3-2c-0.9,0-1.4,0.6-2.6,1.4c-2.6,0.6-4.8-0.3-6.5-2.3
				l-1.4-0.3c-0.3,0.9-0.9,1.1-1.7,1.1v-5.4c-0.9-0.6-1.4-1.4-1.4-2.3l4.8-5.4l-2.6-3.7v-1.4l-1.7,0.9l-1.7-0.6l-1.1-1.1v-2.3
				l-2.6-1.7c-1.1-2-2.3-2.8-3.1-2.8c-0.6,2.6-2,4.5-4.3,6.5l-1.4,3.7c-3.1,2.3-5.7,4.5-8.2,7.1l0.6,4l-4.3,2.6h-1.4l-1.4-0.9h-0.6
				l-0.9-1.1l-1.4-1.4l-3.4-0.6l-3.7,0.3c0-0.6,0-1.7-0.9-2.6c-0.6-0.3-1.1-0.9-1.7-1.4l0.3-1.7c-0.6-2.3-1.4-4.5-3.4-6.3v-1.4
				l2.6-2.6l1.4-0.3v-4l-1.1-1.4h-2.3l-0.3-1.4v-1.7l2.6-3.1l1.4-0.3l-1.7-2l-1.1-2v-1.7l0.6-2.6l1.7-2.3l-1.1-1.1l-1.4-1.1v-3.4
				l1.7-2.3h5.1c0.9,0.6,1.4,0.3,1.7-0.6c-0.6-1.1-1.1-2-2-2.3l-2.8,0.6"/>
			<path class="st1" d="M859.8,918.4l-4.8,0.6l-0.9-0.9l-1.4-0.3v-3.7l-2.3,2h-4.5c-0.9,2-1.4,3.7-2.8,5.1v4.5l-1.4,1.1l-1.4-4.5
				l-1.4-1.1l-1.1-0.3l-7.7,6.8l-1.4-1.4h-5.7l-0.9-2h-2c-3.1,1.4-5.7,4-7.7,7.4h-4.8l-2.8-3.1l-2.6,1.1c-1.1,0-1.7,0.3-2.6,0.9
				c-0.3,0.6-0.9,0.9-1.4,0.6l-2-1.7l-8.2,0.9v-3.4l-1.1-0.9c-1.4,0.6-2.3,1.4-3.1,2.8c-2,0.9-3.7,0.6-5.1-0.9l1.4-2l0.3-1.4
				l-0.3-1.1l-3.7-4c-0.3-0.6-0.3-1.7-0.3-3.1h-6l-0.3-1.4l0.3-1.7l4-7.4l-1.1-3.4"/>
			<path class="st1" d="M772.9,902.4l-0.6-1.1l0.3-1.7l2.3-1.7l-1.1-1.1l-2.8-2l0.6-1.7l-0.9-2.3l-2.8-2h-1.4l-4.5,3.1l-3.1-2.3H757
				l-8,6.3l-6-1.7c-0.9,0.3-1.4,0-1.4-0.6v-2.3l-0.9-2.6l-2.6,1.4c-3.1-1.4-6.5-0.9-9.7,1.1h-6.3l-2.6-7.1l-2.8-2v-4l-2.6-2.6v-3.1
				h1.1c0.9-0.3,1.1-0.6,0.9-1.4v-2l-1.1-0.6c-1.4,0.6-2.6,1.4-3.1,3.1c-0.9,1.4-1.7,1.7-2.6,1.1l-2,0.6c0,1.7-0.9,2.8-2.3,3.7
				l-1.4-0.9H701l-1.4,1.7h-3.7v-5.1l1.7-2V868h-0.9l-1.4,0.6l-4,5.1l-2.6-2l-3.7,4.5l-2-1.7l-1.4,0.9v2.8l-1.4,0.9h-0.9
				c-0.6,0.3-1.1,0.9-1.4,1.7c1.4,0.6,2.6,1.4,3.4,2.8c-0.6,0.9-1.4,1.7-2.8,2l-3.7,0.6v5.1l-6.8,4.8v2.6l-2,2.3
				c-0.3,0.9,0.3,1.4,1.1,1.4v5.4c-4,1.7-7.4,0.9-10.2-2l-1.4-0.3v-1.7l-1.7-3.1c-2.6-1.1-4.5-0.6-6,1.7c-0.6,0.3-1.1,0.3-1.7,0.9
				h-2.3l-1.1-0.6v-1.1h-4.3v2c-1.7-0.3-3.4-0.6-4.8-1.4c-0.6-0.9-0.6-1.7-0.6-2.8c-0.6-0.6-1.4-0.6-2,0h-2.6
				c-0.9,2-2.6,2.8-4.3,2.8l-0.3-1.4l0.6-2c3.1-3.7,3.4-7.4,2-11.1l-1.7-4V882c0.6-1.1,1.1-2.3,1.1-3.4h-6.5
				c-6.3,4.5-13.1,6-20.5,4.3c0.6-0.9,0.9-1.7,0.6-2.3l-1.4-0.3l-4.5,0.3c-0.6,0.9-1.4,1.1-2.3,1.1h-2.8"/>
			<path class="st1" d="M1229.3,960.7c-0.6,0.9-1.4,1.4-2.3,1.7l-2.6-3.4l-2-1.7h-1.7l-2,1.7c-0.9-0.9-2-1.4-3.1-2l-3.1,2.8
				c-0.9-0.3-1.4-0.3-1.7,0l0.9,4.8l-1.1,1.1c-1.1,0-2.3,0.6-3.4,1.1l-0.3,2.8c-0.3,1.1-0.9,2-1.7,2h-7.7v-1.7h-3.4
				c-1.1,0.3-1.7,0.9-1.4,1.4l2,1.4l-12.8,2.6l-11.7,6l-2.6,2l-2.8,0.6c-3.4-2.8-7.1-2.6-10.8,0.3c0.3,1.4,0.3,2.8-0.9,4.5l-1.4-2
				h-5.1l3.4,4.8c-0.6,0.6-0.3,0.9,0.6,1.1l2-0.3l0.3,2.3c-0.6,0.9-1.4,1.4-2.6,1.7h-1.4c-0.9-0.3-1.4-1.1-2-2.6l-0.6-2.6v-1.1
				l-1.4-2l-1.7-1.1c0.3,0.9,0,1.1-0.6,0.9c0,1.1-0.9,1.7-2,1.1c0.3,0.3,0,0.6-0.9,0l-1.1-0.9l-2.6,2l-3.4,5.4l-1.4,1.1h-0.9
				l-1.1,0.3c0.3-0.9,0.3-2-0.6-2.8l-0.6-1.4c-0.3,0-0.6-0.9-0.6-1.7l1.4-0.6l0.6-2.3l-1.7-0.9h-1.7v-2c0.6-0.6,0.6-1.4,0.3-2.6
				h-1.4l-2,0.6l-0.9-1.1l-1.1-0.9c-0.6,2-1.4,3.1-2.8,3.7l-1.7-0.9l-2.3,0.9v1.7l0.9,2.3l-0.3,4h-1.7l-1.4,0.3l-1.4-1.4l-1.1-1.7
				l-1.1-0.3c-2-0.9-4.3-1.7-6-3.1l-1.4,0.6l-2-4l-6,4v6.5l0.3,1.4l0.6,2.3l-0.6,1.4c-0.3,2.3,0.6,4.5,2.6,6l0.6,1.1l2.6,2l1.1,1.1
				l-1.7,1.7l-1.1,0.6l-0.9,1.1c-2.6,0.3-5.1,1.1-7.4,2.6l-1.1,0.3c-0.6-0.3-0.6-0.9-0.6-1.4c-0.3-1.1-0.6-1.7-0.9-1.7
				c-1.1,0.6-2,0.9-2.3,1.1v-1.7c-2.3,0.3-4,0.9-4.8,2.3c-0.6,0.6-0.9,0.6-1.7,0.9c-0.3-1.7-0.6-2.8-0.6-4c0-0.9-0.3-1.4-0.6-1.7
				c-0.9-0.3-1.4,0-1.7,0.9l-1.1,1.1l-1.1-3.1l-2.3,0.6c-0.9,0.6-1.1,1.4-0.9,2.3l-3.1-0.6c-0.3,0.6-0.9,0.9-1.7,0.6
				c0.3,1.4-0.3,2.6-1.1,3.1v1.1h-5.4l2,8.5l-0.9,4.8"/>
			<path class="st1" d="M1001.4,1423.1c1.1-2.3,2-5.1,2.6-8.5c-1.1-1.7-2-2.8-2-4v-2.3l-0.6-1.4l-0.9-1.1c-0.3-0.3-0.6-0.9-0.9-1.4
				l-6.8-9.4l-0.6-1.1v-3.7l-2.6-4l-0.6-1.4l0.9-1.7c0.9-5.4,0.3-11.1-1.4-16.5v-4.8h-1.4l-0.3-1.4l0.6-2h0.9l-0.6-1.1v-3.4
				c-0.3-0.6-0.6-0.6-1.4,0l-0.3-2.6c-1.4,0.9-2.6,2-2.8,3.7h-2.8l-0.6-1.1v-2.3l1.1-1.4l2-1.1v-4.8h-2.3l-0.6-1.7v-2.6l1.7-4.3
				c0.9-2.3,0.3-4.3-1.4-6.3v-4l-1.7-9.1v-4l5.1-6.5c0.3-1.4,0-3.1-0.6-5.1h-2.6l-0.9-1.1c0-1.1,0-1.7-0.3-2.3l-2-0.6v-1.4l2.3-1.4
				v-4.8l-2.3-4.3h-3.1v-2.6h-4.8l-0.3-1.7l1.1-2.3l-2.6-4.3l2.6-1.7l0.3-1.4h1.1l0.3,0.9l1.4-1.1l4.5-2.6l0.9-0.9l4-2.8v-5.1
				c-1.4,0-2-0.6-2.3-1.4c0.6-0.3,0.6-0.9,0.6-1.7l-1.7-3.1l1.4-0.3l0.9-1.4v-1.1l-0.6-1.1v-3.4l1.4-0.3h1.4l0.6-1.4l-1.7-2.6
				l0.3-5.1h1.7l0.6-1.4c-0.6-0.3-0.3-0.6,0.6-1.1l-1.4-3.7h-5.4l0.6-2c-0.3-0.6-1.1-0.6-2-0.6l-1.7,1.4l-4.5-2.8l0.3-0.6l-4.8,1.4
				v4l-4.8,1.4l-1.1,4.3l-3.7-2.6c-0.3-1.1-0.9-1.7-1.4-2.3h-4.3l-1.7-3.7h-4.3l-0.3-2.3l-4-0.6c-0.6-0.6-0.6-1.4-0.3-2.6
				c-1.1-1.4-2.6-2-4.5-2c-0.3-2.8,0.6-5.1,2.6-6.8c0.9-0.6,1.4-1.1,1.7-2.6h2.8c0-1.4,0.6-2.6,1.7-3.1c0.3,0.9,0.9,1.4,1.4,1.7
				c1.4,0,2.3-0.6,2.6-2c0-1.1,0.6-1.1,1.4-0.9l1.1-0.9l1.7-3.1l1.1-0.6l2,1.7c1.1-0.3,2-0.9,2.8-1.4c0.6-0.6,1.4-1.1,2.8-0.9
				l1.4,1.1c0.9,0.9,2,1.1,3.7,1.1l0.9-1.1v-3.7c0.6-0.3,1.1,0,2.3,0.9l0.9-1.7l-1.1-4.8c0.6-0.6,1.1-0.6,2-0.6l1.4,0.9l3.1-0.3h2.8
				l0.6-1.7c1.4,0.9,2.3,0.6,2.3-0.6c0.6-0.9,0.9-1.4,0.6-2.3l0.9-1.1l2.8-0.3c-0.6-1.1-0.3-2.3,0.3-3.7c-2.3,0-2.8-0.6-2.6-2.6h2.6
				l2,0.6h0.9l1.1,0.6l0.6,1.7l5.1-2.6c0-0.9,0.6-1.1,1.7-0.9l1.4,2h1.7c1.1-0.6,2.6-0.6,4.3,0c0,0.9,0.3,1.4,1.1,2l2.3-0.6l0.6-2
				l1.1,0.9c0.6-0.6,1.1-1.1,1.7-1.1l-1.4-2v-2l2.6-2.3l0.6-1.1v-2.8l1.7-2.6h1.4l2.6-0.9c0.9,0,1.1-0.3,0.9-0.6l2,2.3l1.4-0.3
				c1.1-1.1,3.1-1.7,5.7-1.4c-0.3,0.3,0,0.6,0.9,0.9c-0.9,0.3-1.1,1.4-1.1,2.6c-1.4,0.6-1.7,1.7-1.4,2.3h4.5l1.4,0.6v3.4h2.3
				l1.4-0.3c5.7-0.9,10.8-2.6,15.6-5.4l2,0.3c2.8,1.1,5.7,1.4,8.2,1.1c0-0.6,0-1.1,0.6-1.4c0.3-0.3,0.9-0.9,2-0.9
				c0.3-2.3,0.9-4,1.7-6l-2.6-2.6v-3.1h-4.3l0.3-1.7l3.7-2.8l-4.5-4.5l1.1-1.4v-2.6l1.4-2.3l0.9-1.1l1.4,0.6c-0.3-0.9,0-1.4,0.9-1.7
				l-1.1-2.6l-0.9-1.1h2.3c-0.3-0.6,0-1.4,0.6-1.7c-0.9-0.6-1.4-1.4-1.7-2l4.5-1.7c0.9-0.9,1.4-2.3,1.4-3.4
				c-3.4-0.3-6.5-1.7-9.1-4.3c0-0.3-0.3-1.4,0-2.3h1.4h1.7l1.1-0.6c-0.6-0.3-0.6-0.9,0-1.7l1.1-1.1l2.6,0.6c-0.3-2.3-0.3-4,0.9-5.1
				h1.4c-0.3-0.3-0.3-1.1,0.6-2v-5.4l0.9-1.1c0.6-0.6,2-1.4,3.4-2.3l-1.7-2l-2-1.7l-3.4,4c-1.7,0-3.1-0.9-4.5-2.3l-0.3-2.6l-3.1,1.4
				c-0.6,0-1.1-0.6-1.4-2.3l1.4-2.3l-4.5-1.1c-0.9-0.3-1.1-0.6-0.9-1.4l5.1-1.7l-0.9-2l-2.6-2.3l-2.3-1.4h6.5l0.6-2.8v-3.4
				c0.6-2.3,2.3-4.5,4.5-6c0-0.3,0.3-0.9,0.6-1.4c-0.9-3.4-2.6-6.3-5.1-8.8c0.3-2.8,1.7-5.1,3.7-6.8c-0.9-0.6-2-0.9-2.3-0.9
				c-1.1,0.9-2.3,1.4-3.1,0.9l0.3-2l-2,1.1c-2,3.1-4.5,5.1-8.2,6.3c-0.6-0.3-0.9-1.4-0.6-2.6l3.7-2.6l-3.1-0.9v-2l-1.1-2.8
				c2-2.8,3.4-6.5,4.3-10.5h3.4v-2.8l0.3-1.1l1.1-0.9l0.6-1.7c0.3-2.3-0.3-4.3-1.7-6.3"/>
			<path class="st1" d="M1280.2,916.4c-0.3-2.3-0.3-4.8,0.3-7.7l1.1-0.9l1.1-0.9l0.3-1.4v-2l1.4-0.9l1.4-2.3c0.3-0.6,0.3-1.4-0.3-2
				l-2-0.3l-1.4-1.7c0-0.6-0.3-1.1-0.9-1.4c-0.6,0-1.4,0.3-2.3,0.9v-6.3c0-0.6,0-1.4,0.6-2.3h1.1v-3.7c1.1-0.6,2-1.1,2.8-1.7
				c0-0.9,0.3-1.7,0.9-2.6l-1.7-2.3l-1.4-2.6v-1.7l-2-4.3l1.1-1.7l3.1-3.4v-3.1h2.6l1.4,0.6c0.9,0.9,1.7,0.9,2.8,0.9l1.1-0.3
				c0.3-1.1,0.9-2,2-2.6v-3.1l2.8-4l1.4-0.3l1.1-1.4v-1.7l-0.9-1.7c-1.4,1.4-2.8,2.6-4.3,3.4l-4.3-2.6v-3.7l2.8-3.1l0.3-1.4
				l-0.9-0.9c-1.1-2-1.7-3.7-0.9-6l4.3-4.3c0.3,0,0.3-0.9,0-1.7l-1.4-0.9h-1.4c-0.6-0.3-0.9-0.9-0.9-1.4c1.7-1.1,3.7-2.3,6-3.1
				l-1.1-0.9v-1.7l-1.1-2l3.1-1.4l0.9-1.4v-4.5l0.9-1.1v-4l2,1.7l0.9,1.7c1.1,0.9,2.3,1.1,3.4,0.6l2.6-1.1l1.4-2.6v-6.3l2.8-0.6
				v-3.4v-2v-3.7l-1.4-3.4c-1.4-2.3-3.4-3.1-5.7-3.4c-1.7,1.1-4,1.4-7.1,1.1l-2.6-2.3h-6l-0.3-3.7c-0.6-0.9-0.9-1.4-0.6-2l-0.9,2
				l-2.3,1.7h-2.6l-4.5,1.7l-6.5,4.3l-2-2.3c-1.1-1.1-1.4-2.3-1.4-3.7l-0.9-1.1l-1.1-2c0-0.6-0.6-0.3-1.4,0.3l-2,2v1.7h-3.7
				c-0.9-1.1-2-2.6-3.7-3.7h-1.4v-1.4l-0.9-2.8c-0.3-1.7-1.1-3.1-2.3-4.5V762l-1.4-0.9h6.3c0-0.9,0-1.4,0.6-2v-4.5
				c0.3-0.3,0.9-0.6,1.7-0.9c3.1,0,6.3-1.1,8.8-2.8l0.3-2.3l0.6-2.8c0.6-1.7,0.3-2.8-0.9-4.3v-2.8c-0.6-0.6-0.9-1.4-1.1-2.3
				c0.6-0.6,1.4-0.9,2.6-1.1l-0.3-2.8h4.5l2.6-4.5l2-0.3l3.7-2.6c1.4,0.9,2.6,1.4,3.7,1.4v-4.3c-0.6-0.6-1.1-1.1-1.4-2.3
				c0-3.4-0.9-6-2.8-8l1.1-2c1.4-0.6,2.6-1.4,4-2.8c0.6,1.1,1.1,2.3,2,2.8l-2.8,2l1.7,1.4h2.6l6.5-4c1.4,0,2.8-0.6,4.3-1.4l-6.5-4.3
				l-1.1-0.9l0.6-1.4l-1.4-1.7l-6.8-6c-0.3-1.1-0.3-2,0-2.6h-2.3l-2.3,2.3l-3.4-0.9l-6,0.3l-0.9-1.7h-2l-1.1,1.7v0.6
				c-1.1,1.4-1.7,2.6-2,4c0.9,0.9,1.1,2,1.4,3.4v5.7c0.9,0,1.7,0.3,2.3,1.1l-0.6,1.7l-2.3,2l-2-1.1c-2,2.6-4.3,3.7-6.8,3.7v-4.3
				c-0.3-0.3-0.9-0.9-2-1.1h-2.8c-2.8,2.3-6.3,3.1-10.5,2.8v-2l-0.9-4.3l-0.6-1.1l-2-2c0-1.7-0.3-2.8-1.4-3.7
				c-1.7,2.8-4.8,5.1-9.1,6.5c-0.6,0.3-1.1,0-1.4-0.3l-1.4-0.6l2.3-3.7"/>
			<line class="st1" x1="1286.4" y1="646.9" x2="1287.6" y2="646.9"/>
			<path class="st1" d="M1227.6,700.4v-2l2-1.4c1.7-2.8,2.8-6,3.4-9.4h2.3l1.1-0.3v-2.8l1.4-2v-6.8h2l2.3,1.7l1.4-0.3
				c-0.6,0-0.6-0.6,0-1.1l5.1-1.1l4.3-0.3l6-2l2.3-2.6c4.8,0.9,8.8-0.3,12.2-3.4l1.4-4.3l2.8-2.8l0.9-1.4l2.3-1.7
				c3.7-0.9,6-3.1,6.8-6.8v-2.6"/>
			<path class="st1" d="M1243.8,889.4l4.5,2.6l2.3,2.3c0.9,0.3,1.1,0.3,1.4,0.6h2.3l1.1,0.6l0.6,1.4l-1.7,2l-0.6,1.1l0.6,1.4
				c0.9,1.4,1.1,3.1,0.6,4.3l-0.6,1.4l1.4,1.1l1.4,1.4l2.3,3.1l3.1-0.6l0.6,3.4l1.1,1.7l0.6,1.4c1.4,0.3,2,0,1.7-0.9l0.9-1.4
				l1.7-0.3l1.4,2l1.7,0.3l1.4,0.6l1.4,1.4l2-0.9c0.9-0.3,1.4-0.6,1.4-1.1l0.3-1.4c0.6-0.3,1.1-0.6,1.4-0.6"/>
			<path class="st1" d="M1229.3,960.7l1.4-0.9c0.6-0.6,0.6-1.7,0.9-3.4c-0.9-1.1-1.1-2.3-1.1-3.7l2.6-3.7c0.6,0.3,1.1-0.3,2-0.9
				l1.7-0.6c0.3-0.6,0.6-1.1,0.9-0.9l-0.9-1.7l-0.9-1.1l-1.1-0.3l-0.6-1.4c1.1-1.4,1.4-3.1,1.1-5.1l-1.1-1.4l0.3-1.4l1.1-2.6
				c-0.3-1.1-0.3-2.6,0-3.7c0.6-0.9,0.9-1.7,0.9-2.8l1.4-0.6l1.4,0.6l1.4-1.1l3.1-1.4l-1.7-2.6l-1.1-1.4l-1.7-0.9l0.9-3.4
				c-2.6-0.6-5.1-1.4-7.1-2.8l1.7-4.3h-3.4c-0.3-0.3-0.6-1.4-0.3-2.8h2c1.1-0.6,2.6-1.1,4.5-1.1l1.7-2.3c0.3-0.3,0.6-0.6,1.1,0
				c0.6,0.6,1.1,1.1,2,0.9l0.9-8.8l1.1-1.1c-0.6-0.6-0.9-1.4-0.6-2.6"/>
			<path class="st1" d="M1405.2,1134.1l-2-4.8l-2.3-1.1h-3.4l0.9,2c-1.1,0.6-1.7,0.9-2,1.4c-1.7,0.9-3.1,1.1-4.8,0.9l-0.9-1.1
				c-0.6,0-0.6-0.6-0.3-1.7l0.9-2l-7.4-1.1l-1.4,2.3c-3.1,4.8-7.1,7.7-12.2,8.2c0,0.6-0.6,0.9-2,0.9l-0.6,2l-1.4-0.3l-0.6,1.4
				l-2.8,1.7l-5.4-7.4l-1.4-0.3v-2.3l-0.9-2.8v-4c1.4-0.6,2.3-0.9,2.6-2v-1.4l-0.6-1.4c-0.3,0.6-0.3,0.6-0.3-0.3l-2.8,1.7h-1.4
				c0.6-0.3,0.6-1.4,0-2.3c-0.9-0.6-1.7-0.9-3.1-0.6l-0.6-1.4c-0.3,0.3-0.3,0.3-0.3,0c-0.6-0.3-0.9-0.6-1.7-0.3
				c-0.6,0-0.9,0.6-0.9,2h-1.7l-1.1-0.6l-2.3-2.8l-5.1,0.9l-1.4-2.6l-1.1-2.6c-0.6-1.1-1.4-1.4-2.3-2c-0.6-0.6-1.1-1.4-1.4-2.3
				l8.5-6.8c-1.1-0.6-1.7-1.1-2.3-1.4l-0.3-1.7c0-1.4,0.6-2.8,1.4-4.3l1.4-0.9c-0.9-0.3-1.1-0.6-1.1-1.4c-0.6,0.3-0.9,0-0.9-1.1
				c-0.9,0.6-0.9,0.6-0.3-0.6l-3.1,0.9c-0.3,0.6-0.9,0.9-1.7,0.9l-1.7-1.7c0-1.7-0.6-3.1-1.4-4.5c-3.1-3.1-4.5-7.4-4.5-12.8
				l-0.9-1.1l-1.7-1.1l-0.3-2.6c-0.6,0-1.1,0.3-1.4,0.9l-2.3,0.3v1.4l-2.6-0.3c-1.4-0.3-3.1,0.3-4.8,1.4v2c0.3,0.9,0,1.4-0.3,1.7
				l-0.6,1.4h-4l1.4-2.3c-0.6-1.1-1.7-2-3.1-2.8v-2.6l-0.9-1.1h-2l-0.6-0.9c0.3-1.1,0.9-2,1.7-2.6h2.6l0.3-1.7v-2.3h-1.7l-1.1,1.4
				c-0.6,0-0.9,0.3-1.1,0.6c-2.8,0.3-5.4-0.3-7.4-1.1v-6.3l-1.7-1.7c0.9-1.1,2.3-2,3.7-2.8l4.8-0.6c-1.1-2.3-2.3-3.7-3.1-4.3
				c-0.6,0.3-1.1,0.6-1.4,1.1c-0.6-0.3-1.1,0.3-1.1,1.1l-1.7,0.6c-1.4,1.1-2.6,1.4-3.7,0.9l-1.1,2.3l-2,0.6l-2.6-2v-1.4h-3.7v-1.7
				l-1.7-0.6l-0.9-1.4v-2c0.3-0.3,0.9-0.9,1.1-2c-0.6-0.9-1.4-1.4-2.3-1.4l-0.6-1.1l1.4-1.7c-0.3-0.6-0.9-1.1-2-1.7h-1.4
				c-6.5,1.4-12.2,0.6-17.1-2.3c-2,0.3-3.7,0.9-5.1,1.7l1.7-3.4c0.3-0.3,0.9-0.3,1.4-0.6l1.1-0.3c1.7-1.1,3.4-2.3,5.7-3.1l-2-2
				c0-0.6-0.3-1.1-1.1-1.7l-0.9-1.4v-1.4l1.7-2.3c-1.1,0-2.3-0.3-3.1-0.9c-0.3-0.6,0-1.4,0.9-2.8l-0.3-1.7l-0.6-1.1l-5.1-2.8
				l-1.4-0.6v-4.3c0.3-1.4,1.1-2.6,1.7-3.7c-0.9-0.6-1.7-1.1-2.6-1.4l0.6-1.4l0.9-1.1c0-1.1-0.6-1.7-1.1-1.4l-1.1,0.9l-11.7-6.5
				v-3.4l1.7-1.7l-2.6-3.4l-6.3-2.8h-1.7l4.3-7.1l-2.6-4c1.4-0.6,2.8-1.1,4.3-2l-2.3-2.6c0-0.6-0.6-1.1-1.1-1.4"/>
			<path class="st1" d="M565.7,542.9c-2,0-3.1-1.4-3.7-4c0.6-1.1,0.9-2.8,0.6-4.8l-5.4-7.4c0.9-0.6,2-0.9,3.1-0.9l1.7-2.3
				c-0.9-2-2.6-3.7-5.1-5.4c-1.7-0.6-3.1-1.7-3.7-3.7c4.3-3.7,8-8.2,11.4-13.9l-1.1-3.1l-4-4.5V490l1.4-2.6
				c-0.3-2.3-1.7-4.5-4.8-6.5c-10.2,0.6-21.6,4.3-34.7,10.8l-9.7,2.8c-2.6,2-4,3.4-4.3,4c-25.3,4-47.5,11.4-66.2,21.3
				c-3.7,3.1-6,5.1-6.5,6.5l-6.5,4.8l-61.4,34.1l-57.4,39.8c-6,5.7-13.9,9.9-23.3,12.2c-7.7,8.8-17.1,13.4-29,13.9l-18.2,13.1
				l-25,11.4c1.4,4.8,4.3,9.7,8.2,15.1c0.3,3.7-0.6,6.5-2,8.2c0,4.3,0.9,7.7,2.6,10.5l-0.3,19.9l5.4,8h11.1l-0.3,13.9l5.7,10.2
				c0.3,3.7,1.1,7.1,2,10.5h-6.5c-0.9,3.1-1.1,5.4-0.6,7.1c-0.9,2.8-2,4.8-2.8,5.7l-6,5.7c1.1,2.3,2.8,3.7,5.1,3.7
				c0.9,4,0.3,6.3-1.4,7.4c0.3,3.4,1.1,5.7,2.8,6.5c0.3,3.4-0.6,5.7-1.7,6.8c0.6,3.7,2,5.7,2.8,5.7c0,2.3-0.3,4.5-0.9,6.5
				c-2,2.3-3.4,4.5-4.5,6.8c1.1,4,2.6,6,4.5,5.1l8,7.7v12.2l7.7,0.9h5.4c0-4,0.6-6,1.7-6.5l7.7,7.4h13.1l4.3,3.4
				c-1.7,1.4-2.3,3.7-1.7,7.1c1.7,3.1,3.7,5.7,6.3,7.7l8,5.1c0.9,1.7,2,2.8,3.4,4.3c-1.4,2.8-2.3,5.7-2.6,8.8c1.7,3.1,4,5.1,7.4,6.5
				c1.4,2.8,2,6,2,9.1l3.1,6.3c4.3,1.4,8.2,4.3,11.9,8.2l10.8-5.7c2,0.9,3.1,2.6,4.3,5.1l6.3,8l6.3-0.9c3.1,3.4,6.3,6.8,8.8,10.2
				l1.7-7.7c1.4-0.9,3.1-1.1,5.1-1.4c1.7-2.6,2.8-4.8,3.1-6.5l-1.4-8c2.3-2.6,4.8-4,7.7-3.7c-1.4-1.4-2.8-3.1-4.3-5.7
				c1.4-4.8,4.5-7.7,8.8-8.5c2.3,2.3,4.8,4,7.1,4.8c1.1-3.1,2.6-6,4.3-7.7c4.8-1.4,9.4-4.5,13.1-9.1l6,3.4c2.6-0.6,4-2,4.3-4.5
				c2.8-1.7,6-3.1,8.8-4.3c1.7,2.8,4.3,4.5,7.4,5.4l4.8,1.4c1.1-0.9,1.1-2,0.6-2.8l8-6.8v-5.7c2.6-0.6,4.3,0,4.8,2.3h2.8
				c0.9,1.7,1.7,2.3,2.3,2h6.3c1.7,1.4,2.3,2.8,1.7,4l3.7,4.3c3.1,3.4,4.8,7.1,4.8,11.4c0.9,0.9,2,1.7,3.4,2"/>
			<path class="st1" d="M588.4,881.7l0.6-1.7c-0.3-1.7-0.3-3.1,0.3-4l3.4,1.7c1.1-2.8,4-5.1,8.2-6.8c0.3-2.3,1.1-3.4,2.6-3.7
				c0.3-2,1.1-4.3,3.1-7.4c0.3-0.3,1.4,0,2.8,1.1l3.1-1.4l3.1-5.7c2,0,2-0.9,0-2.3l0.3-2.6c-1.1-0.9-1.7-1.7-2-3.4l-6-6.8l4.5-0.6
				l1.7-3.7c0.3-0.9-0.9-1.1-2.6-0.9l-1.1-2.8c-1.7-0.9-2.6-2-2.8-3.4c-1.4-0.6-2.6-2.3-3.7-5.1l-2-3.7c0.9-0.9,0.6-1.4-0.9-1.7
				l-1.7-0.9c-0.9,2-2.3,3.1-4,2.8c-1.4,0-2.3-0.9-2.6-2.6l-2.6-6.5l0.3-3.1l1.1-2c3.4-0.6,5.1-1.4,4.8-2.8v-5.7l2-3.7l-2.8,0.6
				c0.3-1.7,0.3-2.8-0.9-3.4c-0.6-1.1-1.7-2-2.8-2.3c-0.9-2-1.7-2.6-2.8-1.4c0-0.9-0.9-1.4-2.8-1.4c0.3,2.3-0.6,4.3-1.7,5.4
				l-3.4-0.3h-3.7c-0.9,0.6-1.7,0.6-2.3-0.6c-0.9,0-1.1-0.6-1.1-1.7l-0.3-3.1c0-1.1,1.4-2,4-2.6c0.3-0.9-0.3-1.7-1.4-3.1l5.1-0.3
				l-4-8.2c-0.3-1.4,0.3-2.8,1.1-4c3.4,2.3,6.3,3.4,9.1,4c1.1,0,1.7-0.3,1.4-1.1c0.9-0.6,0.6-1.1-0.3-1.1c-0.6-1.7-1.7-2.8-3.4-2.8
				l-2.8-1.1c0.3-1.1,0.3-2-0.3-2.8l4.8,0.6c1.4,1.4,2.3,1.1,2.8-0.3c1.7-0.3,2-1.4,1.4-2.8c-0.9-1.4-2.6-2.8-4.5-4.3h-2.3l-2,4
				l-5.1-0.9c-1.1-0.6-1.7-1.4-2.3-2.8c-0.9,0-1.4-0.6-1.7-1.4l0.3-2.3c-0.3-1.7,0-2.3,0.9-1.4l3.4-2.6l6,0.6l1.4-2.6
				c-0.6-1.1-1.4-1.7-3.1-2l-1.4-3.1c-0.6,0.6-1.1,0.3-2-1.1c-2-0.9-2.3-1.7-0.6-2.3l3.1-1.7v-6.3h6.5l1.7-2c-1.7-0.6-2.6-1.1-2-2.3
				c0-1.1,1.1-2.8,2.8-4.5c-0.9-1.4-2.3-2.6-4.3-3.7v0.3l-4.3-9.1c-0.3-2-1.4-3.7-2.8-4.5l-2-4c0.3-0.9,0.9-2,2.3-3.4
				c1.1,0.9,2,0.9,2.3-0.3l5.4,0.6c0.6-0.9,0-2.3-1.4-4.3l-3.1-3.4l-5.7-1.7c-0.6,0.6-1.1,0.3-1.7-1.1c-0.3-1.7-1.1-2.6-2.3-2.6
				c0-1.4-0.6-2.3-2-2.6c-3.4,0.3-6-0.9-7.7-4l-6.8-7.7l-5.4-2.3l-11.9-8.5l0.3-2c1.1,0,2.6-0.9,3.7-2l2.8-1.7c1.4,0,2.6-0.9,4-2.3
				c0.9-0.9,1.7-1.4,2.8-1.7h3.7v-3.1l3.7-2.3c0-1.1,0.6-3.1,1.4-5.7l0.3-0.6c2,0.6,3.1-0.3,4-2.3l2.3-2.3c1.4-1.1,2.3-2.6,2.6-4
				l-0.9-2.8c0-1.7,0.6-3.1,1.7-4c1.4-0.3,2.3-0.9,2.6-2.3l-5.1-2.6l-1.4-6.5l-5.7-4l2.3-5.7l-6-2.3l-2.8,3.4l-2.8-3.1
				c1.1-1.4,1.7-3.1,2-4.8l4,0.9l2.8-0.9l2-2.6c0-0.9-0.9-1.7-2.6-2.3v-9.1l-4.8,0.6c0-2-0.6-3.4-1.4-4.5c2.8-2.8,6-5.4,9.9-7.7
				l1.7,2.3c1.7-0.9,3.1-1.7,4-2.8l-1.7-4c0.9-1.1,1.4-2,1.4-3.4c-0.6-1.1-1.4-2.6-2.6-3.7c0-1.4,0-2.6-0.6-3.1l-5.1-3.1
				c0.3-0.6,0-1.4-0.9-2.3l4.8-4"/>
			<path class="st1" d="M334.6,901l-1.4-4.8l-1.1-1.4l0.3-2l2.3-1.1l1.7-2l-0.3-1.7l-2-1.4l-0.9-1.4c-0.6-0.6-0.6-1.4,0-2.6l5.1-1.1
				v-1.7c2-1.4,4.3-2.3,6.8-2v2.8l1.4,0.6c0.6,0,1.1-0.6,1.4-2c0-1.1,0.3-2,0.9-2.6l3.1,5.1l2.3,0.6c1.1,0.3,2,0.3,2.6-0.6l1.4-1.4
				h8.5l-1.4-1.4l-0.9-2l0.6-2.3l8-3.7l2.3-0.6h6v-6.8c-0.3-0.6-0.9-0.6-1.4-0.6l-1.1-1.4l-0.6-1.4l-4.3-4l3.1-0.6l2.3-2.3h3.4
				l0.6-1.7v-2h8.8l3.1-1.4l1.4-0.9l2.8-3.1l0.9,2l1.4,0.6c1.7,0.6,2.8,1.4,4,2.6v2.3l-2.3,2.3v2.8l2.6,2.6l-1.4,2.3v3.4h4.5v0.6
				l1.4,0.3l0.9,1.1l-4.3,4.3"/>
			<path class="st1" d="M473.9,882.5c-0.3-0.3,0-0.9,1.7-1.4l1.7,0.3l1.7,2l2.8-2.6l2-0.6c2.8-0.6,5.1-1.7,6.8-3.7h1.7
				c2.8,1.7,4.8,4,6.3,7.1h4.3c1.7,2.3,4.5,3.4,8.8,3.4l7.1-1.1l0.3,2.3h2l2.3-2.8l1.4-1.1h1.4l4,5.7l3.7,2.6v2.8l-1.1,1.4v2
				l1.4,0.3l0.9,1.1v7.1c3.4,0.3,6,1.7,8.5,4.3h0.9c1.4,1.1,3.1,2.3,4.8,3.1l1.1-7.1h1.1l1.7-5.4c3.4,0.9,7.1,0.6,10.2-1.1l2.3-1.7
				l1.4-0.6l0.9-1.1l-0.9-1.7v-4.3l1.1-1.4l4.8-0.3c2,0.6,4.3,0,6.5-1.7V884c0.3-0.3,0.6-0.6,1.1-0.9l7.7-1.4"/>
			<path class="st1" d="M473.9,882.5l4.8,5.1c-1.4,1.7-2.3,3.4-2.6,4.8l7.7,1.7l-6.8,8.5l4.8,4.8c1.4,2,1.7,3.4,1.4,4.5h10.2
				l2.8-1.7h6l0.3,6c1.4,1.1,2.8,1.7,4,2c0.9,1.7,1.1,3.4,1.1,5.1c-2.3,0.9-4,2-4.8,3.4l5.4,6.8c-5.1,1.4-9.1,4.3-11.4,8.5
				c0.6,1.4,1.4,2.3,2.3,3.1v2.6l4,4l-1.4,3.4l-2.3,3.1c2,1.4,3.4,3.4,4.5,5.7l1.1,2.6l-1.1,3.4l6.8,8l0.9,6l3.1,5.1
				c-1.4,1.7-2.3,3.4-3.1,5.4c0.6,2,1.7,3.4,3.1,4.5c0.3,3.4-0.6,6.3-2.6,8c0.3,1.4,0.6,2.6,1.4,3.4c0.9,1.1,1.4,2.3,1.7,3.7
				c-0.6,1.4-1.1,2.6-2,2.8v6.5l-1.1,2.6c0,1.1,0.6,2,1.7,2.3c1.4,1.1,2.3,2.6,2.6,4.3c2.3,4.3,6,6.8,11.4,7.1
				c0.9,0.6,2,0.9,2.8,0.9l3.1,6.8l2.6-1.1c1.7,0.6,2.6,0.9,2.6,1.1c2,1.4,3.4,2.3,4.8,2.6h4.8l5.1,8c2-0.6,3.4-1.7,4.8-3.1
				l11.7-1.7c1.1-0.9,2-2,1.7-4c3.7,0.3,6-0.9,7.1-3.7c0.9,2,2.6,2.8,4.8,2.8c2.3-2.3,3.1-5.4,2.6-8.5c3.4-3.4,6-6.5,7.7-10.2
				c2.6,3.1,5.1,5.1,8,5.7c2.3-0.6,4-1.4,4.5-2.6l7.7,5.4v5.1l-2.3,2.6l-4.8,2.6l-2,3.7v9.4l10.2-5.7h7.1l5.1-2h4.3
				c1.4,0.9,2.6,0.9,3.7-0.6l6.8,7.4h2.3c2.3-2,4.5-3.4,6.5-4.3l9.9,9.9v5.1l4.5,8h5.4c1.1,0.3,2,1.4,2.8,3.1c0.6,2,0.3,3.1-0.6,3.7
				l-1.4,3.1c0.3,1.7,0.9,2.6,1.7,3.4c2.8,4,4.3,8.5,4.3,14.5v20.7l-3.7,8.2l-2.3,1.7l-0.9,2.6c0.3,1.1,1.1,1.7,2.6,1.4
				c2.3,3.4,2.8,6.5,1.7,9.7c-0.6,1.1-1.1,2.3-1.1,3.4c2,1.1,4,2.8,6,5.7l-1.7,2c3.1,4.3,4.5,8,4.8,10.5c0.3,0.9,1.7,2,4,3.1
				l2.8,3.4c0.6,1.7,1.7,2.8,3.1,4.3l2.8-0.3c0.3-2.8-0.9-5.1-3.1-7.1c-0.3-1.4,0-2.6,0.3-4c1.1,0,2.3,0.6,2.8,1.4l2,2.3
				c0,1.1,0.6,2,1.4,2.8l2.8-0.3l0.3-12.2l0.6-3.7c0.6-2,0.9-3.4,0.3-4.3l4.5-5.4c2,0,4.5,0.9,6.8,2.6l3.1-4c4-0.9,7.7-0.3,10.8,1.7
				l4.8-4.8l2.6,1.4c-0.9,2.3-1.1,4.3-1.1,6l3.7,0.3c1.1-1.4,1.7-2.8,2-4.5l2.6-3.1h2.8c0.9,0.9,1.1,1.7,1.4,2.8l5.7,0.3l2.3,1.7
				c0.9,1.4,1.1,3.1,1.1,5.1c1.7,1.4,3.1,2,3.7,2h6l2,1.7l0.9,3.4l-2,3.1l5.7-1.1l2.6,1.4c4-3.7,8.2-6.3,12.8-6.8l5.7-3.7l3.1-3.4
				l3.1-1.4c1.1,0.3,1.7,1.1,2,2.8l-0.3,4c0.9-0.6,2-1.4,2.8-2.8l5.4,0.6c1.1-1.7,2-2.6,2.6-2.6h10.5c0.6-2.6,0.3-4-0.9-4.5
				c1.1-2,2.6-3.4,4.8-3.4c1.7,1.7,2.8,4.3,2.3,7.4c0.9,2,1.7,4,2.8,5.7h5.1c1.4,0.9,2,2.3,1.7,4.3c0,1.1,0.6,1.7,1.7,2l3.7,2.3
				l3.1,4v6.8l2.6,0.6l5.1-1.4c2.6,1.1,4.5,3.1,6,5.4h4l3.1,6.3v9.1l-1.7,2.6c0.3,2.3,1.1,3.1,2,2.6l3.4-0.6c0.9,1.4,0.9,2.8,0,3.7
				c0,1.4,0,2.3,1.1,2.6l0.3,4h3.1l2.6,2.3h5.4c0.9-1.7,1.7-2.6,1.7-2.6l2-2.8c-0.6-2-1.1-3.7-2.6-5.1l-3.1-0.6
				c-2,0.3-3.1,0-3.7-1.4c1.1-2,1.7-3.1,2.6-3.7c0.3-1.7,0-2.6-0.9-2.8c0.9-1.1,1.7-1.1,2.8-0.9c1.4,0.3,2.6-0.3,2.6-1.1l2.6,0.9
				v5.1l2.6,2.8c2-0.3,3.1-0.6,3.4-1.1l3.7,1.7c1.1-0.9,2.3-1.4,3.1-1.7c1.4,1.1,2.6,2.3,3.4,4v5.7l4.3,0.9c0,2.8-0.3,5.1-1.7,6.3
				l-1.7,2.6c-1.1,0.3-2.3,0.9-2.8,1.4l-1.7,2l-3.4-1.7c-0.9,0.9-1.4,2-1.4,3.4l-3.7,4.3l-1.7,2.3c0,2.6-0.6,4.8-1.7,6.8h-3.4
				c-1.1,2.3-3.1,3.4-5.1,3.1l-1.4,2.6l2.3,2.3c0.6,1.4,1.1,3.1,1.1,4.8l-0.9,3.4c-0.6,2.6-0.3,4.3,0.3,5.1l-5.4,7.1h4
				c0,2,0.6,3.7,1.1,4.3c-0.3,2.3-1.1,4-1.7,5.1l-4.8,3.1l-0.9,2.6c-1.4,1.7-2,3.1-2,4.8"/>
			<path class="st1" d="M872.3,1289.8c-0.3,1.4-0.9,2-1.7,2c-1.4,0.9-2,2-2,3.1v4l3.4,0.9h9.4c0.6-0.3,0.6-1.4,0.6-3.1l6.3,0.6
				c2,0,3.7-0.3,5.1-1.1h4.8l1.4,3.4c-1.1,1.1-0.9,2.3,1.4,3.4l1.1,2.6c-1.4,2.3-2.3,4.3-2.3,5.1l-1.1,3.1c2.3,0.9,3.4,1.4,4,1.1
				c-1.1,2.3-1.4,4.3-1.4,5.4h4l0.3,3.4l1.1,3.1c1.1,0.9,2.3,1.4,3.7,1.4c0.6,1.1,0.9,2.3,0.6,4.3l0.9,4.5c0,2-0.6,3.4-1.4,4.5
				l-10.5,6.5c-1.4,0.9-2.3,1.7-2.3,2.6c-1.1,1.7-2.8,2.3-4.5,1.4c-0.6,0.3-1.4,1.1-1.7,2l-4,0.9c-2-0.6-3.4-1.4-4.3-2.3
				c-1.1,0.6-1.4,1.4-1.4,2.8c-1.7,1.7-2.8,4-3.4,6.3v3.1c-5.1,3.1-7.4,6.5-6.5,10.2v3.7l4.3,2.6l1.4,3.1l3.1,0.6
				c1.4-0.3,2.3-0.9,2.6-1.4l1.4,3.4l-3.4,6.3l-3.4,1.1l-2,2.3c-0.9,1.7-1.1,2.8-0.6,2.8c1.4,0.9,2.3,1.4,2.6,2h6.3l3.1-1.7l1.7,2.8
				l4,2c1.7,0,3.4,0.6,4.8,1.1v9.1l13.4-0.3c2-0.6,3.7-1.7,5.4-3.1c4.5-2.6,9.7-3.4,15.3-2.6h9.9c0.9-1.7,1.4-2.8,2.3-3.1l3.4,0.3
				c3.1,2.8,6.5,4,9.9,4l2.6,1.1c1.1,2,2.3,3.7,4,4.8h6.5l2.3,2h3.4c1.4-0.9,2.8-0.6,3.7,0.3h6.3l15.3,4.8"/>
			<path class="st1" d="M1228.5,1514.9l-0.6-4.3c-0.3-0.3-0.6-0.9-0.6-1.4l1.1-1.7l1.4-0.6h1.7l0.6-0.9l-0.3-1.4l-2-1.4l1.1-1.4
				l4,1.4c0.9-1.1,1.4-2,1.4-2.6l-2.3-0.3c-0.6-0.6-0.6-1.4,0-2.6c-1.1-1.7-1.4-3.7-0.3-6l-0.3-2l-2-3.4h2.3
				c0.9-0.3,1.4-0.6,1.7-1.1c0-1.4,0-2.6-0.6-3.4h3.7l1.1-1.4l0.6-1.7c1.4-1.1,2.8-1.1,4,0h1.4l0.6-1.4l2.3-2.3
				c1.7-0.3,2.8-1.1,3.7-2.6c0.3-0.6-0.3-1.4-0.9-2.6l-2-0.6c0,0.3-0.3-0.3-0.3-1.7l5.1-0.3l1.4,1.4l4.3-4.8l1.7-0.9h1.7l4-4.5h-5.4
				v-2.6l-3.7-0.9c0.3-0.9,0.9-1.4,1.4-2l0.3-3.4c1.1,0.3,2.3,0.9,3.1,1.4l2.8,0.9l1.4-1.1l0.6-1.1c0.3-1.1,0-2.3-0.6-3.4l1.7-2
				l0.6-2.6h3.7l1.1-0.3c1.7-0.3,2.8-1.1,3.4-2.8l-0.3-2c0.3,0.9,0.6,0.6,0.6-0.3c0.6,0.6,1.1,0.3,1.7-0.6l9.4,0.6l1.1-0.9l0.3-1.4
				l-1.7-1.4c-0.9,0.6-1.7,0.3-2.3-0.9c0.3-0.3,0-1.1-0.9-2h-1.7l-1.7-3.1c-0.6-1.7-0.6-3.1,0-4.8v-3.7c0.6,0,0.6-0.6,0-0.9
				c0.6-0.3,0.6-0.6,0-1.1l-0.9-8c0,1.1-0.9,2-2,2.3l-2-1.1l-1.4-2.8h-2l-1.4-1.7l-3.7-1.7l-2-2v-2c0.3-1.1,0.6-2,1.4-2.3l-4.8-2.3
				l-1.4,1.1c-0.3-0.9-0.3-1.7,0-2.3c-1.4-0.3-2.3,0-2.6,0.6c-0.9,0.9-1.1,1.7-0.9,2.3c-0.6,0.6-0.9,0.6-1.7,0h-2l-1.7-0.3
				c0.3,0.6,0,0.9-0.6,0.6l-0.6,2.8c-4.3,0.6-7.7-0.9-10.2-4.3c0-1.4,0.6-2.8,1.7-4.3l1.1-1.4v-3.1c-1.4-0.3-2.8-1.1-3.7-2l-1.1-3.1
				l-3.1-1.4l1.4-4.5l-0.3-2h-3.4l-1.7-3.4l-5.4-4.5c0.9,0,1.4-0.3,2.3-0.9c0.6-0.6,1.4-1.1,2.3-1.1c0.3,1.1,1.1,2,2.6,2.8
				c1.1-0.6,2-1.7,2.6-2.8v-2l-0.9-1.4l-0.9-1.4v-1.4l1.4-1.7c0.3-0.6,0.9-1.1,1.7-1.4l2.8,0.6l-0.6,2.6l4,2.3
				c0.3-1.1,0.6-2,1.1-2.8l1.7,0.3l3.7-1.7v-3.7c1.7-1.4,3.7-2.6,6.3-3.4v-4.3c-0.6-0.9-0.3-0.9,0.3-0.6c-0.6-0.6-0.3-1.1,0.9-0.9
				l1.7,0.6l0.6-2.3v-5.4l-0.9-2.6l2.3,0.3l0.9,1.4l1.4,0.3v-4.3l-1.4-0.6c-0.6,0.3-1.1,0-1.1-1.1l0.3-3.4c-0.6-0.3-0.6-0.6,0-0.6
				c-0.3-0.3-0.3-0.6,0.3-1.1c0.3-0.6,0.6-1.1,0.3-2.3c0.3,0,0.3-0.6,0-1.4l-1.1-1.7l1.4,0.3l0.9-7.7c0-2.3,0.3-4.3,1.1-6.5l0.9-1.1
				c0.6-0.3,1.1-0.6,1.7-0.6v5.1c-0.6,2-1.1,4-1.4,6v2.8l1.7,0.3c0.6,2,0.6,4,0.3,5.7c0.6,0.6,1.4,0.9,2.3,1.1l0.6-1.4l5.7-0.3
				c4.5-0.9,9.1-2,13.9-4l2.3,2l0.9-2c0.3,0.6,1.1,1.1,2,1.1c-0.6,0.6,0,1.4,1.4,2.3h6.3c0.3-0.6,1.4-1.4,2.6-2.3l0.6-1.4l0.3-2
				l11.1,2c0.3,0.6,1.1,0.9,2.3,0.9l2-1.1l1.7,1.1l1.1,1.4c2.3-2.6,5.4-3.4,9.1-3.1l1.4-1.4l-0.9-3.1l2.8-2l2,0.3l2.6,0.9l1.4,0.3
				l2.3-0.3l1.1-1.4l2-0.3l2.6,2c1.4-2.3,1.7-4.8,0.3-8.2c-0.9,0.3-2,0-3.4-1.1l0.9-1.4c-0.9,0.3-1.4-0.3-1.1-1.1l-3.1-0.3
				c-0.3,0.6-0.9,0.6-1.7,0.6l-0.9-1.1l-1.4-4l2.3-2.3l7.4-3.4c0.3,0.3,0.3,0.9,0,2l2-0.6c0.9,0,1.1-0.3,1.4-1.1l1.4-3.1l1.4,0.6
				c0.9,0,1.1-0.6,1.1-1.4v-1.7c0.3-0.6,0.3-1.1,0-1.7l-0.6-1.7c0-0.3,0-0.6-0.6-1.1c0.9-0.3,0.6-0.6-0.3-0.6l-3.4-0.9l-1.1-2.3
				v-2.8l-2.3-0.9l-0.9-1.4c-0.6-0.6-0.9-2.3-0.6-4.3c-2.6-0.9-4-2.3-4.8-4.8l-1.4-1.1v-1.7l2-1.1c-0.6,0.3-0.6,0-0.3-0.9l1.1-1.4
				c-0.3-0.6-0.9-0.9-1.4-0.6c-0.9,0-1.7,0.3-2.6,1.1l-0.3-1.1c-0.3,0.6-0.3,0.3-0.9-0.6l-2,0.3c1.1-2,2.6-3.7,4.5-5.1l-4.3-4
				l-1.4-2.8c0.3-0.9,0.3-1.1-0.6-1.1c-0.9-0.3-1.4-0.3-2.3,0c-1.1,0.9-2.3,1.1-3.4,1.1l-4.5-0.6c-0.6-0.6-0.9-1.4-0.9-2.3l0.9-1.1
				c0,0,0.6-0.6,1.4-0.9l3.7-2.6h0.9l2-1.4l2.3,0.3v2.3l1.1,1.4l2.3-1.4h1.4l4.8-1.7c1.1-0.3,1.7-1.4,1.7-3.1l-2.6-5.4
				c1.1-0.6,2-1.4,2-2.3l1.7,0.9c-0.3,0-0.6,0.3-0.3,0.9"/>
			<path class="st1" d="M1348.7,1225.3l1.4-1.4c0.9,0.3,2,0.3,2.6,0c0.3,0,0.6-0.6,1.4-0.9l2-3.1c0.6-0.6,1.4-1.1,2.3-0.6v1.7
				l4.8,3.7l2-2h2c2-0.9,3.4-2,4.3-3.7h1.1l1.1-0.9c1.7-0.9,3.1-1.7,4.3-2.3l2.3-1.7c0.9-4.3,3.1-6.8,6.8-7.4c0.3-0.9,0.9-1.4,1.7-2
				v-2l2.3-2.3l6.8-1.7l2.3-1.4v-2c1.4-0.9,3.1-1.1,5.4-1.1v-5.1l-3.4-2.8c-0.3-1.1,0-1.4,0.6-1.7l2.3-2.6l-2.6-2l2.3-1.7l-1.4-1.4
				c-0.9,0-1.1-0.3-1.1-1.1l1.1-1.7v-2.3c-0.6,0-1.1,0.3-2,0.6c-0.3,0-0.9,0.3-1.1,0.9l0.3,1.4c-0.3,0.3-1.1,0.9-2,0.9l-1.1-0.9
				l-2.8-0.9l-1.1-1.7h-1.1l-4.8,2.6v3.4l-2.6,2.3l-0.3,2.3l-1.4-2.8l-0.6-1.1v-4.8l2.6-0.6l4.3-2.8l7.1-3.4
				c0.6-0.9,1.4-1.4,2.8-1.7l1.4-1.1l-0.3-1.4l1.1-0.9c0.6,0,1.1,0,2,0l1.1-0.9l0.9-4.8l-2.3-0.6l-1.7-0.9c-0.6,0.6-0.9,0.6-0.6-0.3
				c-2.3-0.6-2.8-2-2.3-4.8c1.1-0.9,2.8-1.7,5.1-2.3c-0.9-1.1-1.1-2-0.6-2.6c1.1,0,1.7-0.9,2-1.4v-1.1l1.7-0.9l-1.7-7.4"/>
			<path class="st1" d="M1001.4,1423.1l3.4,3.4c3.1-2.3,6.3-3.7,9.4-4.8l4.8-2.3l9.9-0.3l3.1,1.4l2.6-2.8l2.6,0.3l2.6-4
				c0.3-4,2-7.1,5.4-8.8c1.4,0.9,2,1.4,2,1.4h4l2-1.7c3.1,0,5.1-1.1,5.7-2.6v-3.1c0.6-1.4,1.1-2,1.4-2l3.1-2h13.1l22.2-8.5
				c1.1,0,2,0.3,2.8,0.9c1.4,0.3,2.8,0,3.7-0.9l2.6,1.4l2.6,0.3c0.9-1.4,0.9-2,0.6-2.6l-4.5-3.4c-0.3-1.7,0.3-2.8,1.1-3.7l-0.3-2.8
				l-1.4-4.5c0-1.4,0-2.3,0.6-3.1v-3.1l3.4-4l0.6-3.4l-0.9-2.8c0.3-0.6,0.9-1.4,1.7-2v-6.3l-5.1,1.7v-5.1l-3.7-0.3
				c-0.6-2-0.3-3.1,0.9-3.4h2.8c0.6-0.9,1.1-1.4,2-2l-0.9-6l5.4-7.4c-0.3-1.4,0.3-2.8,1.1-4c1.4,0,2.3,0.6,2.8,1.7
				c1.4,0,2.3-0.6,2.3-1.7l2-2.8l13.6-6.5l0.3-2.8c-1.1-1.1-2-2.3-2.6-4c0.6-1.7,2-2.3,4.3-1.4v-9.7l14.2-4.5l13.9-14.2
				c0,2.3-0.3,4-0.9,4.5c0.6,0.9,1.7,1.4,3.1,1.7c0.6,1.1,1.1,2,0.9,2.8c1.1,1.1,2,1.4,2.8,0.9l11.1,0.3c1.4-0.6,3.1-1.1,4.8-1.7
				c1.1,2.3,2,5.1,2.8,8.2l2.6,0.6l2.8,1.1c0.3,2.3-0.6,3.4-2,4c-1.4,0-2.6,0.6-3.4,2c-1.1-0.9-2-0.3-2.8,2.6l-3.1,4.3l2.6,8v5.4
				l0.9,4c-0.3,1.7-0.9,2.8-2,3.4c-1.7,0-3.1-0.6-4.3-1.4v-6.3l-5.4-0.6l-0.3,3.1l-4.3,1.1l2,2.3c1.4,1.1,2.3,2,2.6,2.3v2l-3.1,1.1
				v8.5c-0.6,1.1-1.7,1.7-2.8,2l-4.8-0.3c-0.6,1.4-1.1,2.6-1.1,4c0.9,1.4,2.6,2,4.5,2c0.3,1.7-0.3,3.1-2.3,4c0,1.1,0.3,2,0.6,2.8
				c1.7,0.9,3.7,1.4,5.7,1.4c0.9,2.8,0.3,5.4-2,7.4c-1.1,0-2,0.3-2.6,1.1c0,1.7-0.9,2.8-2.6,2.8l-2,2l1.4,2.6
				c-0.6,1.1-1.4,1.7-2.3,2c-0.3,2,0,3.4,0.6,4.3l2.3,2l-2,2.3c-1.1,1.1-1.4,2.8-1.4,4.5h3.1v4.5l-2.8,0.6c-1.1,3.1-2.6,5.1-4.3,6.3
				l-4.3-1.1c-1.1,1.7-1.1,3.1,0.3,4c-0.6,2-1.4,3.7-2.6,4.8v8.5l3.1-0.3c2,0.3,3.1,1.1,3.7,2.3l6.5,2l2.6,2h5.1
				c0.6-0.9,1.1-1.4,2.3-1.7l3.7,8.5c0,1.1,0.3,2.3,0.9,3.1l1.7,2.6l2.6,0.6l6.5,3.7l0.3,3.7l4.3,4.5c-0.9,1.7-2.3,2.3-4.5,2
				c-1.1,0-2,0.6-2.3,1.1c-0.6,1.1-0.6,2.3-0.3,2.8c2,0.6,3.1,0.3,4-0.9c0.9,0.3,1.4,1.4,1.4,2.8c-1.4,0.9-2.3,1.7-3.1,2.3
				c-0.9,1.4-1.1,2.8-1.4,4.3c-1.1-0.3-2.3,0-3.1,1.4l1.4,3.4c-0.9,1.4-1.7,2.3-2.6,2.8l-2.3,2.8c0.3,1.7,0.3,3.4-0.3,4.8
				c-1.7-0.9-2.8-2-3.4-4c-1.4-0.3-2.6-0.3-3.1,0.3c-0.3,2-0.3,2.8,0.9,3.4l2,2.6v7.1l2.6,1.4l-0.9,3.4h6v13.1
				c1.7,0.9,3.1,2.3,4.3,4l-2.3,2.6h-2l-2.8,1.4c0,1.4,0.3,2.8,0.9,3.7c-0.9,3.7-3.1,6.5-6.5,8l9.4,4c0.3-0.9,0.3-2,0.3-3.7
				c2.3,0.6,4.8,1.7,7.4,4l3.1-0.9c1.4,0.6,2.3,1.1,3.1,2.3c3.7-0.9,7.1-0.9,10.2-0.3c1.7-0.6,2.6-1.1,2.3-2l1.7-2.3
				c2.6,0.9,4.5,0.6,6-0.9l-1.1-2.8c0.3-1.4,1.4-2.8,3.4-4l1.7,3.4l3.1,0.6c1.1-1.1,1.7-2,1.7-3.1"/>
		</g>
	</g>
	<g>
		<text transform="matrix(0.9558 0 0 1 626.7935 732.7664)" class="st2 st3 st4">OOST-VLAANDEREN</text>
	</g>
	<g>
		<text transform="matrix(0.9558 0 0 1 310.3262 750.9548)" class="st2 st3 st4">WEST-VLAANDEREN</text>
	</g>
	<g>
		<text transform="matrix(0.9558 0 0 1 728.3984 1041.9875)" class="st2 st3 st4">HAINAUT</text>
	</g>
	<g>
		<text transform="matrix(0.9558 0 0 1 967.2769 969.5144)" class="st2 st3 st4">BRABANT WALLON</text>
	</g>
	<g>
		<text transform="matrix(0.9558 0 0 1 1157.8389 1181.1047)" class="st2 st3 st4">NAMUR</text>
	</g>
	<g>
		<text transform="matrix(0.9558 0 0 1 1352.9468 1386.593)" class="st2 st3 st4">LUXEMBOURG</text>
	</g>
	<g>
		<text transform="matrix(0.9558 0 0 1 1472.7456 1039.7122)" class="st2 st3 st4">LIEGE</text>
	</g>
	<g>
		<text transform="matrix(0.9558 0 0 1 1368.2964 735.7498)" class="st2 st3 st4">LIMBURG</text>
	</g>
	<g>
		<text transform="matrix(0.9558 0 0 1 1050.2651 592.2224)" class="st2 st3 st4">ANTWERPEN</text>
	</g>
	<g>
		<text transform="matrix(0.9558 0 0 1 1016.1602 780.656)" class="st2 st3 st4">VLAAMS - BRABANT</text>
	</g>
</g>
<circle class="st5" cx="394.9" cy="787.2" r="11.7"/>
<circle class="st5" cx="617.2" cy="621.6" r="11.7"/>
<circle class="st5" cx="998.3" cy="873" r="11.7"/>
<circle class="st5" cx="1077.5" cy="992.8" r="11.7"/>
<circle class="st5" cx="907.9" cy="1110.2" r="11.7"/>
<circle class="st5" cx="1065.9" cy="471" r="11.7"/>
<circle class="st5" cx="1430" cy="685.3" r="11.7"/>
<circle class="st5" cx="1490.5" cy="909" r="11.7"/>
<circle class="st5" cx="1576.3" cy="1235.2" r="11.7"/>
<circle class="st5" cx="1569.4" cy="1612.7" r="11.7"/>
</svg>
